  0
SECTION
  2
HEADER
  9
$ACADVER
  1
AC1024
  9
$ACADMAINTVER
 70
     6
  9
$DWGCODEPAGE
  3
UNDEFINED
  9
$INSBASE
 10
0.0
 20
0.0
 30
0.0
  9
$EXTMIN
 10
1.000000000000000E+20
 20
1.000000000000000E+20
 30
1.000000000000000E+20
  9
$EXTMAX
 10
-1.000000000000000E+20
 20
-1.000000000000000E+20
 30
-1.000000000000000E+20
  9
$LIMMIN
 10
0.0
 20
0.0
  9
$LIMMAX
 10
12.0
 20
9.0
  9
$ORTHOMODE
 70
     0
  9
$REGENMODE
 70
     1
  9
$FILLMODE
 70
     1
  9
$QTEXTMODE
 70
     0
  9
$MIRRTEXT
 70
     1
  9
$LTSCALE
 40
1.0
  9
$ATTMODE
 70
     1
  9
$TEXTSIZE
 40
0.2
  9
$TRACEWID
 40
0.05
  9
$TEXTSTYLE
  7
Standard
  9
$CLAYER
  8
0
  9
$CELTYPE
  6
ByLayer
  9
$CECOLOR
 62
   256
  9
$CELTSCALE
 40
1.0
  9
$DISPSILH
 70
     0
  9
$DIMSCALE
 40
1.0
  9
$DIMASZ
 40
0.18
  9
$DIMEXO
 40
0.0625
  9
$DIMDLI
 40
0.38
  9
$DIMRND
 40
0.0
  9
$DIMDLE
 40
0.0
  9
$DIMEXE
 40
0.18
  9
$DIMTP
 40
0.0
  9
$DIMTM
 40
0.0
  9
$DIMTXT
 40
0.18
  9
$DIMCEN
 40
0.09
  9
$DIMTSZ
 40
0.0
  9
$DIMTOL
 70
     0
  9
$DIMLIM
 70
     0
  9
$DIMTIH
 70
     1
  9
$DIMTOH
 70
     1
  9
$DIMSE1
 70
     0
  9
$DIMSE2
 70
     0
  9
$DIMTAD
 70
     0
  9
$DIMZIN
 70
     0
  9
$DIMBLK
  1

  9
$DIMASO
 70
     1
  9
$DIMSHO
 70
     1
  9
$DIMPOST
  1

  9
$DIMAPOST
  1

  9
$DIMALT
 70
     0
  9
$DIMALTD
 70
     2
  9
$DIMALTF
 40
25.4
  9
$DIMLFAC
 40
1.0
  9
$DIMTOFL
 70
     0
  9
$DIMTVP
 40
0.0
  9
$DIMTIX
 70
     0
  9
$DIMSOXD
 70
     0
  9
$DIMSAH
 70
     0
  9
$DIMBLK1
  1

  9
$DIMBLK2
  1

  9
$DIMSTYLE
  2
Standard
  9
$DIMCLRD
 70
     0
  9
$DIMCLRE
 70
     0
  9
$DIMCLRT
 70
     0
  9
$DIMTFAC
 40
1.0
  9
$DIMGAP
 40
0.09
  9
$DIMJUST
 70
     0
  9
$DIMSD1
 70
     0
  9
$DIMSD2
 70
     0
  9
$DIMTOLJ
 70
     1
  9
$DIMTZIN
 70
     0
  9
$DIMALTZ
 70
     0
  9
$DIMALTTZ
 70
     0
  9
$DIMUPT
 70
     0
  9
$DIMDEC
 70
     4
  9
$DIMTDEC
 70
     4
  9
$DIMALTU
 70
     2
  9
$DIMALTTD
 70
     2
  9
$DIMTXSTY
  7
Standard
  9
$DIMAUNIT
 70
     0
  9
$DIMADEC
 70
     0
  9
$DIMALTRND
 40
0.0
  9
$DIMAZIN
 70
     0
  9
$DIMDSEP
 70
    46
  9
$DIMATFIT
 70
     3
  9
$DIMFRAC
 70
     0
  9
$DIMLDRBLK
  1

  9
$DIMLUNIT
 70
     2
  9
$DIMLWD
 70
    -2
  9
$DIMLWE
 70
    -2
  9
$DIMTMOVE
 70
     0
  9
$DIMFXL
 40
1.0
  9
$DIMFXLON
 70
     0
  9
$DIMJOGANG
 40
0.7853981633974483
  9
$DIMTFILL
 70
     0
  9
$DIMTFILLCLR
 70
     0
  9
$DIMARCSYM
 70
     0
  9
$DIMLTYPE
  6

  9
$DIMLTEX1
  6

  9
$DIMLTEX2
  6

  9
$DIMTXTDIRECTION
 70
     0
  9
$LUNITS
 70
     2
  9
$LUPREC
 70
     4
  9
$SKETCHINC
 40
0.1
  9
$FILLETRAD
 40
0.5
  9
$AUNITS
 70
     0
  9
$AUPREC
 70
     0
  9
$MENU
  1
.
  9
$ELEVATION
 40
0.0
  9
$PELEVATION
 40
0.0
  9
$THICKNESS
 40
0.0
  9
$LIMCHECK
 70
     0
  9
$CHAMFERA
 40
0.5
  9
$CHAMFERB
 40
0.5
  9
$CHAMFERC
 40
1.0
  9
$CHAMFERD
 40
0.0
  9
$SKPOLY
 70
     0
  9
$TDCREATE
 40
2458976.787627315
  9
$TDUCREATE
 40
2458976.704293982
  9
$TDUPDATE
 40
2458976.787627315
  9
$TDUUPDATE
 40
2458976.704293982
  9
$TDINDWG
 40
0.0000000116
  9
$TDUSRTIMER
 40
0.0000000116
  9
$USRTIMER
 70
     1
  9
$ANGBASE
 50
0.0
  9
$ANGDIR
 70
     0
  9
$PDMODE
 70
     0
  9
$PDSIZE
 40
0.0
  9
$PLINEWID
 40
0.0
  9
$SPLFRAME
 70
     0
  9
$SPLINETYPE
 70
     6
  9
$SPLINESEGS
 70
     8
  9
$HANDSEED
  5
149
  9
$SURFTAB1
 70
     6
  9
$SURFTAB2
 70
     6
  9
$SURFTYPE
 70
     6
  9
$SURFU
 70
     6
  9
$SURFV
 70
     6
  9
$UCSBASE
  2

  9
$UCSNAME
  2

  9
$UCSORG
 10
0.0
 20
0.0
 30
0.0
  9
$UCSXDIR
 10
1.0
 20
0.0
 30
0.0
  9
$UCSYDIR
 10
0.0
 20
1.0
 30
0.0
  9
$UCSORTHOREF
  2

  9
$UCSORTHOVIEW
 70
     0
  9
$UCSORGTOP
 10
0.0
 20
0.0
 30
0.0
  9
$UCSORGBOTTOM
 10
0.0
 20
0.0
 30
0.0
  9
$UCSORGLEFT
 10
0.0
 20
0.0
 30
0.0
  9
$UCSORGRIGHT
 10
0.0
 20
0.0
 30
0.0
  9
$UCSORGFRONT
 10
0.0
 20
0.0
 30
0.0
  9
$UCSORGBACK
 10
0.0
 20
0.0
 30
0.0
  9
$PUCSBASE
  2

  9
$PUCSNAME
  2

  9
$PUCSORG
 10
0.0
 20
0.0
 30
0.0
  9
$PUCSXDIR
 10
1.0
 20
0.0
 30
0.0
  9
$PUCSYDIR
 10
0.0
 20
1.0
 30
0.0
  9
$PUCSORTHOREF
  2

  9
$PUCSORTHOVIEW
 70
     0
  9
$PUCSORGTOP
 10
0.0
 20
0.0
 30
0.0
  9
$PUCSORGBOTTOM
 10
0.0
 20
0.0
 30
0.0
  9
$PUCSORGLEFT
 10
0.0
 20
0.0
 30
0.0
  9
$PUCSORGRIGHT
 10
0.0
 20
0.0
 30
0.0
  9
$PUCSORGFRONT
 10
0.0
 20
0.0
 30
0.0
  9
$PUCSORGBACK
 10
0.0
 20
0.0
 30
0.0
  9
$USERI1
 70
     0
  9
$USERI2
 70
     0
  9
$USERI3
 70
     0
  9
$USERI4
 70
     0
  9
$USERI5
 70
     0
  9
$USERR1
 40
0.0
  9
$USERR2
 40
0.0
  9
$USERR3
 40
0.0
  9
$USERR4
 40
0.0
  9
$USERR5
 40
0.0
  9
$WORLDVIEW
 70
     1
  9
$SHADEDGE
 70
     3
  9
$SHADEDIF
 70
    70
  9
$TILEMODE
 70
     1
  9
$MAXACTVP
 70
    64
  9
$PINSBASE
 10
0.0
 20
0.0
 30
0.0
  9
$PLIMCHECK
 70
     0
  9
$PEXTMIN
 10
1.000000000000000E+20
 20
1.000000000000000E+20
 30
1.000000000000000E+20
  9
$PEXTMAX
 10
-1.000000000000000E+20
 20
-1.000000000000000E+20
 30
-1.000000000000000E+20
  9
$PLIMMIN
 10
0.0
 20
0.0
  9
$PLIMMAX
 10
12.0
 20
9.0
  9
$UNITMODE
 70
     0
  9
$VISRETAIN
 70
     1
  9
$PLINEGEN
 70
     0
  9
$PSLTSCALE
 70
     1
  9
$TREEDEPTH
 70
  3020
  9
$CMLSTYLE
  2
Standard
  9
$CMLJUST
 70
     0
  9
$CMLSCALE
 40
1.0
  9
$PROXYGRAPHICS
 70
     1
  9
$MEASUREMENT
 70
     0
  9
$CELWEIGHT
370
    -1
  9
$ENDCAPS
280
     0
  9
$JOINSTYLE
280
     0
  9
$LWDISPLAY
290
     1
  9
$INSUNITS
 70
     4
  9
$HYPERLINKBASE
  1

  9
$STYLESHEET
  1

  9
$XEDIT
290
     1
  9
$CEPSNTYPE
380
     0
  9
$PSTYLEMODE
290
     1
  9
$FINGERPRINTGUID
  2
{F4DA2F14-0192-837A-FF36-A7368799061D}
  9
$VERSIONGUID
  2
{FAEB1C32-E019-11D5-929B-00C0DF256EC4}
  9
$EXTNAMES
290
     1
  9
$PSVPSCALE
 40
0.0
  9
$OLESTARTUP
290
     0
  9
$SORTENTS
280
   127
  9
$INDEXCTL
280
     0
  9
$HIDETEXT
280
     1
  9
$XCLIPFRAME
280
     2
  9
$HALOGAP
280
     0
  9
$OBSCOLOR
 70
   257
  9
$OBSLTYPE
280
     0
  9
$INTERSECTIONDISPLAY
280
     0
  9
$INTERSECTIONCOLOR
 70
   257
  9
$DIMASSOC
280
     2
  9
$PROJECTNAME
  1

  9
$CAMERADISPLAY
290
     0
  9
$LENSLENGTH
 40
50.0
  9
$CAMERAHEIGHT
 40
0.0
  9
$STEPSPERSEC
 40
2.0
  9
$STEPSIZE
 40
6.0
  9
$3DDWFPREC
 40
2.0
  9
$PSOLWIDTH
 40
0.25
  9
$PSOLHEIGHT
 40
4.0
  9
$LOFTANG1
 40
1.570796326794897
  9
$LOFTANG2
 40
1.570796326794897
  9
$LOFTMAG1
 40
0.0
  9
$LOFTMAG2
 40
0.0
  9
$LOFTPARAM
 70
     7
  9
$LOFTNORMALS
280
     1
  9
$LATITUDE
 40
37.795
  9
$LONGITUDE
 40
-122.394
  9
$NORTHDIRECTION
 40
0.0
  9
$TIMEZONE
 70
 -8000
  9
$LIGHTGLYPHDISPLAY
280
     1
  9
$TILEMODELIGHTSYNCH
280
     1
  9
$CMATERIAL
347
3C
  9
$SOLIDHIST
280
     1
  9
$SHOWHIST
280
     1
  9
$DWFFRAME
280
     2
  9
$DGNFRAME
280
     2
  9
$REALWORLDSCALE
290
     1
  9
$INTERFERECOLOR
 62
   256
  9
$CSHADOW
280
     0
  9
$SHADOWPLANELOCATION
 40
0.0
  0
ENDSEC
  0
SECTION
  2
CLASSES
  0
CLASS
  1
ACDBDICTIONARYWDFLT
  2
AcDbDictionaryWithDefault
  3
ObjectDBX Classes
 90
        0
 91
        4
280
     0
281
     0
  0
CLASS
  1
VISUALSTYLE
  2
AcDbVisualStyle
  3
ObjectDBX Classes
 90
     4095
 91
        4
280
     0
281
     0
  0
CLASS
  1
MATERIAL
  2
AcDbMaterial
  3
ObjectDBX Classes
 90
     1153
 91
        4
280
     0
281
     0
  0
CLASS
  1
SUN
  2
AcDbSun
  3
SCENEOE
 90
     1024
 91
        4
280
     0
281
     0
  0
ENDSEC
  0
SECTION
  2
TABLES
  0
TABLE
  2
VPORT
  5
8
330
0
100
AcDbSymbolTable
 70
     1
  0
VPORT
  5
29
330
8
100
AcDbSymbolTableRecord
100
AcDbViewportTableRecord
  2
*Active
 70
     0
 10
0.0
 20
0.0
 11
1.0
 21
1.0
 12
0.0
 22
0.0
 13
0.0
 23
0.0
 14
0.5
 24
0.5
 15
0.5
 25
0.5
 16
0.0
 26
0.0
 36
1.0
 17
104.9999999737534
 27
148.4999999628701
 37
0.0
 40
296.9999999257402
 41
0.7070707070707533
 42
50.0
 43
0.0
 44
0.0
 50
0.0
 51
0.0
 71
     0
 72
   100
 73
     1
 74
     3
 75
     0
 76
     0
 77
     0
 78
     0
281
     0
 65
     1
110
0.0
120
0.0
130
0.0
111
1.0
121
0.0
131
0.0
112
0.0
122
1.0
132
0.0
 79
     0
146
0.0
 60
     3
 61
     5
292
     1
282
     1
141
0.0
142
0.0
 63
   250
361
3F
  0
ENDTAB
  0
TABLE
  2
LTYPE
  5
5
330
0
100
AcDbSymbolTable
 70
     1
  0
LTYPE
  5
14
330
5
100
AcDbSymbolTableRecord
100
AcDbLinetypeTableRecord
  2
ByBlock
 70
     0
  3

 72
    65
 73
     0
 40
0.0
  0
LTYPE
  5
15
330
5
100
AcDbSymbolTableRecord
100
AcDbLinetypeTableRecord
  2
ByLayer
 70
     0
  3

 72
    65
 73
     0
 40
0.0
  0
LTYPE
  5
16
330
5
100
AcDbSymbolTableRecord
100
AcDbLinetypeTableRecord
  2
Continuous
 70
     0
  3
Solid line
 72
    65
 73
     0
 40
0.0
  0
ENDTAB
  0
TABLE
  2
LAYER
  5
2
330
0
100
AcDbSymbolTable
 70
     4
  0
LAYER
  5
10
330
2
100
AcDbSymbolTableRecord
100
AcDbLayerTableRecord
  2
0
 70
     0
 62
     7
  6
Continuous
370
    -3
390
F
347
3E
  0
LAYER
  5
40
330
2
100
AcDbSymbolTableRecord
100
AcDbLayerTableRecord
  2
OUTER_PROFILES
 70
     0
 62
     7
  6
Continuous
370
    -3
390
F
347
3E
  0
LAYER
  5
51
330
2
100
AcDbSymbolTableRecord
100
AcDbLayerTableRecord
  2
BEND
 70
     0
 62
     7
  6
Continuous
370
    -3
390
F
347
3E
  0
LAYER
  5
92
330
2
100
AcDbSymbolTableRecord
100
AcDbLayerTableRecord
  2
BEND_EXTENT
 70
     0
 62
     7
  6
Continuous
370
    -3
390
F
347
3E
  0
ENDTAB
  0
TABLE
  2
STYLE
  5
3
330
0
100
AcDbSymbolTable
 70
     1
  0
STYLE
  5
11
330
3
100
AcDbSymbolTableRecord
100
AcDbTextStyleTableRecord
  2
Standard
 70
     0
 40
0.0
 41
1.0
 50
0.0
 71
     0
 42
0.2
  3
txt
  4

  0
ENDTAB
  0
TABLE
  2
VIEW
  5
6
330
0
100
AcDbSymbolTable
 70
     0
  0
ENDTAB
  0
TABLE
  2
UCS
  5
7
330
0
100
AcDbSymbolTable
 70
     0
  0
ENDTAB
  0
TABLE
  2
APPID
  5
9
330
0
100
AcDbSymbolTable
 70
     1
  0
APPID
  5
12
330
9
100
AcDbSymbolTableRecord
100
AcDbRegAppTableRecord
  2
ACAD
 70
     0
  0
ENDTAB
  0
TABLE
  2
DIMSTYLE
  5
A
330
0
100
AcDbSymbolTable
 70
     1
100
AcDbDimStyleTable
  0
DIMSTYLE
105
27
330
A
100
AcDbSymbolTableRecord
100
AcDbDimStyleTableRecord
  2
Standard
 70
     0
178
     0
340
11
  0
ENDTAB
  0
TABLE
  2
BLOCK_RECORD
  5
1
330
0
100
AcDbSymbolTable
 70
    32
  0
BLOCK_RECORD
  5
1F
330
1
100
AcDbSymbolTableRecord
100
AcDbBlockTableRecord
  2
*Model_Space
340
22
 70
     0
280
     1
281
     0
  0
BLOCK_RECORD
  5
1B
330
1
100
AcDbSymbolTableRecord
100
AcDbBlockTableRecord
  2
*Paper_Space
340
1E
 70
     0
280
     1
281
     0
  0
BLOCK_RECORD
  5
23
330
1
100
AcDbSymbolTableRecord
100
AcDbBlockTableRecord
  2
*Paper_Space0
340
26
 70
     0
280
     1
281
     0
  0
BLOCK_RECORD
  5
41
330
1
100
AcDbSymbolTableRecord
100
AcDbBlockTableRecord
  2
block 2
340
0
102
{BLKREFS
331
42
102
}
 70
     0
280
     1
281
     0
  0
BLOCK_RECORD
  5
52
330
1
100
AcDbSymbolTableRecord
100
AcDbBlockTableRecord
  2
block 3
340
0
102
{BLKREFS
331
53
102
}
 70
     0
280
     1
281
     0
  0
BLOCK_RECORD
  5
5A
330
1
100
AcDbSymbolTableRecord
100
AcDbBlockTableRecord
  2
block 4
340
0
102
{BLKREFS
331
5B
102
}
 70
     0
280
     1
281
     0
  0
BLOCK_RECORD
  5
62
330
1
100
AcDbSymbolTableRecord
100
AcDbBlockTableRecord
  2
block 5
340
0
102
{BLKREFS
331
63
102
}
 70
     0
280
     1
281
     0
  0
BLOCK_RECORD
  5
6A
330
1
100
AcDbSymbolTableRecord
100
AcDbBlockTableRecord
  2
block 6
340
0
102
{BLKREFS
331
6B
102
}
 70
     0
280
     1
281
     0
  0
BLOCK_RECORD
  5
72
330
1
100
AcDbSymbolTableRecord
100
AcDbBlockTableRecord
  2
block 7
340
0
102
{BLKREFS
331
73
102
}
 70
     0
280
     1
281
     0
  0
BLOCK_RECORD
  5
7A
330
1
100
AcDbSymbolTableRecord
100
AcDbBlockTableRecord
  2
block 8
340
0
102
{BLKREFS
331
7B
102
}
 70
     0
280
     1
281
     0
  0
BLOCK_RECORD
  5
82
330
1
100
AcDbSymbolTableRecord
100
AcDbBlockTableRecord
  2
block 9
340
0
102
{BLKREFS
331
83
102
}
 70
     0
280
     1
281
     0
  0
BLOCK_RECORD
  5
8A
330
1
100
AcDbSymbolTableRecord
100
AcDbBlockTableRecord
  2
block 10
340
0
102
{BLKREFS
331
8B
102
}
 70
     0
280
     1
281
     0
  0
BLOCK_RECORD
  5
93
330
1
100
AcDbSymbolTableRecord
100
AcDbBlockTableRecord
  2
block 11
340
0
102
{BLKREFS
331
94
102
}
 70
     0
280
     1
281
     0
  0
BLOCK_RECORD
  5
9B
330
1
100
AcDbSymbolTableRecord
100
AcDbBlockTableRecord
  2
block 12
340
0
102
{BLKREFS
331
9C
102
}
 70
     0
280
     1
281
     0
  0
BLOCK_RECORD
  5
A3
330
1
100
AcDbSymbolTableRecord
100
AcDbBlockTableRecord
  2
block 13
340
0
102
{BLKREFS
331
A4
102
}
 70
     0
280
     1
281
     0
  0
BLOCK_RECORD
  5
AB
330
1
100
AcDbSymbolTableRecord
100
AcDbBlockTableRecord
  2
block 14
340
0
102
{BLKREFS
331
AC
102
}
 70
     0
280
     1
281
     0
  0
BLOCK_RECORD
  5
B3
330
1
100
AcDbSymbolTableRecord
100
AcDbBlockTableRecord
  2
block 15
340
0
102
{BLKREFS
331
B4
102
}
 70
     0
280
     1
281
     0
  0
BLOCK_RECORD
  5
BB
330
1
100
AcDbSymbolTableRecord
100
AcDbBlockTableRecord
  2
block 16
340
0
102
{BLKREFS
331
BC
102
}
 70
     0
280
     1
281
     0
  0
BLOCK_RECORD
  5
C3
330
1
100
AcDbSymbolTableRecord
100
AcDbBlockTableRecord
  2
block 17
340
0
102
{BLKREFS
331
C4
102
}
 70
     0
280
     1
281
     0
  0
BLOCK_RECORD
  5
CB
330
1
100
AcDbSymbolTableRecord
100
AcDbBlockTableRecord
  2
block 18
340
0
102
{BLKREFS
331
CC
102
}
 70
     0
280
     1
281
     0
  0
BLOCK_RECORD
  5
D3
330
1
100
AcDbSymbolTableRecord
100
AcDbBlockTableRecord
  2
block 19
340
0
102
{BLKREFS
331
D4
102
}
 70
     0
280
     1
281
     0
  0
BLOCK_RECORD
  5
DB
330
1
100
AcDbSymbolTableRecord
100
AcDbBlockTableRecord
  2
block 20
340
0
102
{BLKREFS
331
DC
102
}
 70
     0
280
     1
281
     0
  0
BLOCK_RECORD
  5
E3
330
1
100
AcDbSymbolTableRecord
100
AcDbBlockTableRecord
  2
block 21
340
0
102
{BLKREFS
331
E4
102
}
 70
     0
280
     1
281
     0
  0
BLOCK_RECORD
  5
EB
330
1
100
AcDbSymbolTableRecord
100
AcDbBlockTableRecord
  2
block 22
340
0
102
{BLKREFS
331
EC
102
}
 70
     0
280
     1
281
     0
  0
BLOCK_RECORD
  5
F3
330
1
100
AcDbSymbolTableRecord
100
AcDbBlockTableRecord
  2
block 23
340
0
102
{BLKREFS
331
F4
102
}
 70
     0
280
     1
281
     0
  0
BLOCK_RECORD
  5
FB
330
1
100
AcDbSymbolTableRecord
100
AcDbBlockTableRecord
  2
block 24
340
0
102
{BLKREFS
331
FC
102
}
 70
     0
280
     1
281
     0
  0
BLOCK_RECORD
  5
103
330
1
100
AcDbSymbolTableRecord
100
AcDbBlockTableRecord
  2
block 25
340
0
102
{BLKREFS
331
104
102
}
 70
     0
280
     1
281
     0
  0
BLOCK_RECORD
  5
10B
330
1
100
AcDbSymbolTableRecord
100
AcDbBlockTableRecord
  2
block 26
340
0
102
{BLKREFS
331
10C
102
}
 70
     0
280
     1
281
     0
  0
BLOCK_RECORD
  5
114
330
1
100
AcDbSymbolTableRecord
100
AcDbBlockTableRecord
  2
block 27
340
0
102
{BLKREFS
331
115
102
}
 70
     0
280
     1
281
     0
  0
BLOCK_RECORD
  5
11C
330
1
100
AcDbSymbolTableRecord
100
AcDbBlockTableRecord
  2
block 28
340
0
102
{BLKREFS
331
11D
102
}
 70
     0
280
     1
281
     0
  0
BLOCK_RECORD
  5
124
330
1
100
AcDbSymbolTableRecord
100
AcDbBlockTableRecord
  2
block 29
340
0
102
{BLKREFS
331
125
102
}
 70
     0
280
     1
281
     0
  0
BLOCK_RECORD
  5
12C
330
1
100
AcDbSymbolTableRecord
100
AcDbBlockTableRecord
  2
block 30
340
0
102
{BLKREFS
331
12D
102
}
 70
     0
280
     1
281
     0
  0
BLOCK_RECORD
  5
134
330
1
100
AcDbSymbolTableRecord
100
AcDbBlockTableRecord
  2
block 31
340
0
102
{BLKREFS
331
135
102
}
 70
     0
280
     1
281
     0
  0
BLOCK_RECORD
  5
13C
330
1
100
AcDbSymbolTableRecord
100
AcDbBlockTableRecord
  2
block 32
340
0
102
{BLKREFS
331
13D
102
}
 70
     0
280
     1
281
     0
  0
ENDTAB
  0
ENDSEC
  0
SECTION
  2
BLOCKS
  0
BLOCK
  5
20
330
1F
100
AcDbEntity
  8
0
100
AcDbBlockBegin
  2
*Model_Space
 70
     0
 10
0.0
 20
0.0
 30
0.0
  3
*Model_Space
  1

  0
ENDBLK
  5
21
330
1F
100
AcDbEntity
  8
0
100
AcDbBlockEnd
  0
BLOCK
  5
1C
330
1B
100
AcDbEntity
 67
     1
  8
0
100
AcDbBlockBegin
  2
*Paper_Space
 70
     0
 10
0.0
 20
0.0
 30
0.0
  3
*Paper_Space
  1

  0
ENDBLK
  5
1D
330
1B
100
AcDbEntity
 67
     1
  8
0
100
AcDbBlockEnd
  0
BLOCK
  5
24
330
23
100
AcDbEntity
  8
0
100
AcDbBlockBegin
  2
*Paper_Space0
 70
     0
 10
0.0
 20
0.0
 30
0.0
  3
*Paper_Space0
  1

  0
ENDBLK
  5
25
330
23
100
AcDbEntity
  8
0
100
AcDbBlockEnd
  0
BLOCK
  5
43
330
41
100
AcDbEntity
  8
0
100
AcDbBlockBegin
  2
block 2
 70
     0
 10
0.0
 20
0.0
 30
0.0
  3
block 2
  1

  0
SPLINE
  5
45
330
41
100
AcDbEntity
  8
OUTER_PROFILES
 62
     7
420
 16777215
370
    25
100
AcDbSpline
210
0.0
220
0.0
230
1.0
 70
     8
 71
     3
 72
    86
 73
    82
 74
     0
 42
0.0000000001
 43
0.0000000001
 12
1.0
 22
0.0
 32
0.0
 13
1.0
 23
0.0
 33
0.0
 40
0.0
 40
0.0
 40
0.0
 40
0.0
 40
1.0
 40
1.0
 40
1.0
 40
2.0
 40
2.0
 40
2.0
 40
3.0
 40
3.0
 40
3.0
 40
4.0
 40
4.0
 40
4.0
 40
5.0
 40
5.0
 40
5.0
 40
6.0
 40
6.0
 40
6.0
 40
7.0
 40
7.0
 40
7.0
 40
8.0
 40
8.0
 40
8.0
 40
9.0
 40
9.0
 40
9.0
 40
10.0
 40
10.0
 40
10.0
 40
11.0
 40
11.0
 40
11.0
 40
12.0
 40
12.0
 40
12.0
 40
13.0
 40
13.0
 40
13.0
 40
14.0
 40
14.0
 40
14.0
 40
15.0
 40
15.0
 40
15.0
 40
16.0
 40
16.0
 40
16.0
 40
17.0
 40
17.0
 40
17.0
 40
18.0
 40
18.0
 40
18.0
 40
19.0
 40
19.0
 40
19.0
 40
20.0
 40
20.0
 40
20.0
 40
21.0
 40
21.0
 40
21.0
 40
22.0
 40
22.0
 40
22.0
 40
23.0
 40
23.0
 40
23.0
 40
24.0
 40
24.0
 40
24.0
 40
25.0
 40
25.0
 40
25.0
 40
26.0
 40
26.0
 40
26.0
 40
27.0
 40
27.0
 40
27.0
 40
27.0
 10
81.10416664034042
 20
91.05814358614462
 30
0.0
 10
81.10416664034042
 20
91.05814358614462
 30
0.0
 10
68.5850519024046
 20
91.05814358614462
 30
0.0
 10
68.5850519024046
 20
91.05814358614462
 30
0.0
 10
66.37591290363393
 20
91.05814358614462
 30
0.0
 10
64.58505190340487
 20
92.84900458637368
 30
0.0
 10
64.58505190340487
 20
95.05814358514435
 30
0.0
 10
64.58505190340487
 20
95.05814358514435
 30
0.0
 10
64.58505190340487
 20
136.0581435871453
 30
0.0
 10
64.58505190340487
 20
136.0581435871453
 30
0.0
 10
64.58505190340487
 20
138.267282585916
 30
0.0
 10
66.37591290363393
 20
140.0581435861451
 30
0.0
 10
68.5850519024046
 20
140.0581435861451
 30
0.0
 10
68.5850519024046
 20
140.0581435861451
 30
0.0
 10
81.30416664034043
 20
140.0581435861451
 30
0.0
 10
81.30416664034043
 20
140.0581435861451
 30
0.0
 10
81.30416664034043
 20
140.0581435861451
 30
0.0
 10
81.30416664034043
 20
195.5272583230805
 30
0.0
 10
81.30416664034043
 20
195.5272583230805
 30
0.0
 10
81.30416664034043
 20
195.5272583230805
 30
0.0
 10
92.5171411846455
 20
197.5044082692385
 30
0.0
 10
92.5171411846455
 20
197.5044082692385
 30
0.0
 10
92.5171411846455
 20
197.5044082692385
 30
0.0
 10
95.79509350666795
 20
198.8117940963019
 30
0.0
 10
95.79509350666795
 20
198.8117940963019
 30
0.0
 10
96.55538963758121
 20
199.1150323036575
 30
0.0
 10
97.0541666403405
 20
199.8509507118725
 30
0.0
 10
97.0541666403405
 20
200.6694881985409
 30
0.0
 10
97.0541666403405
 20
200.6694881985409
 30
0.0
 10
97.0541666403405
 20
204.3335230066743
 30
0.0
 10
97.0541666403405
 20
204.3335230066743
 30
0.0
 10
97.0541666403405
 20
205.4380925060596
 30
0.0
 10
97.94959714045503
 20
206.3335230061741
 30
0.0
 10
99.05416663984036
 20
206.3335230061741
 30
0.0
 10
99.05416663984036
 20
206.3335230061741
 30
0.0
 10
111.5541666408403
 20
206.3335230061741
 30
0.0
 10
111.5541666408403
 20
206.3335230061741
 30
0.0
 10
112.6587361402256
 20
206.3335230061741
 30
0.0
 10
113.5541666403404
 20
205.4380925060596
 30
0.0
 10
113.5541666403404
 20
204.3335230066739
 30
0.0
 10
113.5541666403404
 20
204.3335230066739
 30
0.0
 10
113.5541666403404
 20
200.6694881985412
 30
0.0
 10
113.5541666403404
 20
200.6694881985412
 30
0.0
 10
113.5541666403404
 20
199.8509507118725
 30
0.0
 10
114.0529436430997
 20
199.1150323036575
 30
0.0
 10
114.813239774013
 20
198.8117940963019
 30
0.0
 10
114.813239774013
 20
198.8117940963019
 30
0.0
 10
118.0911920960358
 20
197.5044082692382
 30
0.0
 10
118.0911920960358
 20
197.5044082692382
 30
0.0
 10
118.0911920960358
 20
197.5044082692382
 30
0.0
 10
129.3041666403402
 20
195.5272583230805
 30
0.0
 10
129.3041666403402
 20
195.5272583230805
 30
0.0
 10
129.3041666403402
 20
195.5272583230805
 30
0.0
 10
130.7516918388417
 20
195.5272583230805
 30
0.0
 10
130.7516918388417
 20
195.5272583230805
 30
0.0
 10
130.7516918388417
 20
195.5272583230805
 30
0.0
 10
136.8232813772761
 20
195.5272583230805
 30
0.0
 10
136.8232813772761
 20
195.5272583230805
 30
0.0
 10
136.8232813772761
 20
195.5272583230805
 30
0.0
 10
142.0232813782767
 20
195.5272583230805
 30
0.0
 10
142.0232813782767
 20
195.5272583230805
 30
0.0
 10
144.2324203770473
 20
195.5272583230805
 30
0.0
 10
146.0232813772764
 20
193.7363973228515
 30
0.0
 10
146.0232813772764
 20
191.5272583240808
 30
0.0
 10
146.0232813772764
 20
191.5272583240808
 30
0.0
 10
146.0232813772764
 20
151.5272583220799
 30
0.0
 10
146.0232813772764
 20
151.5272583220799
 30
0.0
 10
146.0232813772764
 20
149.3181193233092
 30
0.0
 10
144.2324203770473
 20
147.5272583230801
 30
0.0
 10
142.0232813782767
 20
147.5272583230801
 30
0.0
 10
142.0232813782767
 20
147.5272583230801
 30
0.0
 10
136.8232813772761
 20
147.5272583230801
 30
0.0
 10
136.8232813772761
 20
147.5272583230801
 30
0.0
 10
136.8232813772761
 20
147.5272583230801
 30
0.0
 10
130.7516918388417
 20
147.5272583230801
 30
0.0
 10
130.7516918388417
 20
147.5272583230801
 30
0.0
 10
130.7516918388417
 20
147.5272583230801
 30
0.0
 10
129.3041666403402
 20
147.5272583230801
 30
0.0
 10
129.3041666403402
 20
147.5272583230801
 30
0.0
 10
129.3041666403402
 20
147.5272583230801
 30
0.0
 10
129.1041666403402
 20
91.05814358398979
 30
0.0
 10
129.1041666403402
 20
91.05814358398979
 30
0.0
  0
POLYLINE
  5
46
330
41
100
AcDbEntity
  8
OUTER_PROFILES
 62
     7
420
 16777215
370
    25
100
AcDb2dPolyline
 66
     1
 10
0.0
 20
0.0
 30
0.0
  0
VERTEX
  5
47
330
46
100
AcDbEntity
  8
OUTER_PROFILES
 62
     7
420
 16777215
370
    25
100
AcDbVertex
100
AcDb2dVertex
 10
129.3041666403402
 20
91.05814358614462
 30
0.0
  0
VERTEX
  5
144
330
46
100
AcDbEntity
  8
0
100
AcDbVertex
100
AcDb2dVertex
 10
129.3041666403402
 20
91.05814358614462
 30
0.0
  0
SEQEND
  5
48
330
46
100
AcDbEntity
  8
OUTER_PROFILES
 62
     7
420
 16777215
370
    25
  0
ENDBLK
  5
44
330
41
100
AcDbEntity
  8
0
100
AcDbBlockEnd
  0
BLOCK
  5
54
330
52
100
AcDbEntity
  8
0
100
AcDbBlockBegin
  2
block 3
 70
     0
 10
0.0
 20
0.0
 30
0.0
  3
block 3
  1

  0
POLYLINE
  5
56
330
52
100
AcDbEntity
  8
BEND
 62
     7
420
 16777215
370
    25
100
AcDb2dPolyline
 66
     1
 10
0.0
 20
0.0
 30
0.0
  0
VERTEX
  5
57
330
56
100
AcDbEntity
  8
BEND
 62
     7
420
 16777215
370
    25
100
AcDbVertex
100
AcDb2dVertex
 10
81.30416664034043
 20
145.6224796388462
 30
0.0
  0
VERTEX
  5
58
330
56
100
AcDbEntity
  8
BEND
 62
     7
420
 16777215
370
    25
100
AcDbVertex
100
AcDb2dVertex
 10
129.3041666403402
 20
145.6224796388462
 30
0.0
  0
SEQEND
  5
59
330
56
100
AcDbEntity
  8
BEND
 62
     7
420
 16777215
370
    25
  0
ENDBLK
  5
55
330
52
100
AcDbEntity
  8
0
100
AcDbBlockEnd
  0
BLOCK
  5
5C
330
5A
100
AcDbEntity
  8
0
100
AcDbBlockBegin
  2
block 4
 70
     0
 10
0.0
 20
0.0
 30
0.0
  3
block 4
  1

  0
POLYLINE
  5
5E
330
5A
100
AcDbEntity
  8
BEND
 62
     7
420
 16777215
370
    25
100
AcDb2dPolyline
 66
     1
 10
0.0
 20
0.0
 30
0.0
  0
VERTEX
  5
5F
330
5E
100
AcDbEntity
  8
BEND
 62
     7
420
 16777215
370
    25
100
AcDbVertex
100
AcDb2dVertex
 10
130.4089453245747
 20
147.5272583230801
 30
0.0
  0
VERTEX
  5
60
330
5E
100
AcDbEntity
  8
BEND
 62
     7
420
 16777215
370
    25
100
AcDbVertex
100
AcDb2dVertex
 10
130.4089453245747
 20
195.5272583230805
 30
0.0
  0
SEQEND
  5
61
330
5E
100
AcDbEntity
  8
BEND
 62
     7
420
 16777215
370
    25
  0
ENDBLK
  5
5D
330
5A
100
AcDbEntity
  8
0
100
AcDbBlockEnd
  0
BLOCK
  5
64
330
62
100
AcDbEntity
  8
0
100
AcDbBlockBegin
  2
block 5
 70
     0
 10
0.0
 20
0.0
 30
0.0
  3
block 5
  1

  0
POLYLINE
  5
66
330
62
100
AcDbEntity
  8
BEND
 62
     7
420
 16777215
370
    25
100
AcDb2dPolyline
 66
     1
 10
0.0
 20
0.0
 30
0.0
  0
VERTEX
  5
67
330
66
100
AcDbEntity
  8
BEND
 62
     7
420
 16777215
370
    25
100
AcDbVertex
100
AcDb2dVertex
 10
94.78565391249283
 20
198.4091869534724
 30
0.0
  0
VERTEX
  5
68
330
66
100
AcDbEntity
  8
BEND
 62
     7
420
 16777215
370
    25
100
AcDbVertex
100
AcDb2dVertex
 10
115.8226793681878
 20
198.4091869534724
 30
0.0
  0
SEQEND
  5
69
330
66
100
AcDbEntity
  8
BEND
 62
     7
420
 16777215
370
    25
  0
ENDBLK
  5
65
330
62
100
AcDbEntity
  8
0
100
AcDbBlockEnd
  0
BLOCK
  5
6C
330
6A
100
AcDbEntity
  8
0
100
AcDbBlockBegin
  2
block 6
 70
     0
 10
0.0
 20
0.0
 30
0.0
  3
block 6
  1

  0
POLYLINE
  5
6E
330
6A
100
AcDbEntity
  8
BEND
 62
     7
420
 16777215
370
    25
100
AcDb2dPolyline
 66
     1
 10
0.0
 20
0.0
 30
0.0
  0
VERTEX
  5
6F
330
6E
100
AcDbEntity
  8
BEND
 62
     7
420
 16777215
370
    25
100
AcDbVertex
100
AcDb2dVertex
 10
135.9185026930422
 20
195.5272583230805
 30
0.0
  0
VERTEX
  5
70
330
6E
100
AcDbEntity
  8
BEND
 62
     7
420
 16777215
370
    25
100
AcDbVertex
100
AcDb2dVertex
 10
135.9185026930422
 20
147.5272583230801
 30
0.0
  0
SEQEND
  5
71
330
6E
100
AcDbEntity
  8
BEND
 62
     7
420
 16777215
370
    25
  0
ENDBLK
  5
6D
330
6A
100
AcDbEntity
  8
0
100
AcDbBlockEnd
  0
BLOCK
  5
74
330
72
100
AcDbEntity
  8
0
100
AcDbBlockBegin
  2
block 7
 70
     0
 10
0.0
 20
0.0
 30
0.0
  3
block 7
  1

  0
POLYLINE
  5
76
330
72
100
AcDbEntity
  8
BEND
 62
     7
420
 16777215
370
    25
100
AcDb2dPolyline
 66
     1
 10
0.0
 20
0.0
 30
0.0
  0
VERTEX
  5
77
330
76
100
AcDbEntity
  8
BEND
 62
     7
420
 16777215
370
    25
100
AcDbVertex
100
AcDb2dVertex
 10
81.30416664034043
 20
140.9629222703783
 30
0.0
  0
VERTEX
  5
78
330
76
100
AcDbEntity
  8
BEND
 62
     7
420
 16777215
370
    25
100
AcDbVertex
100
AcDb2dVertex
 10
129.3041666403402
 20
140.9629222703783
 30
0.0
  0
SEQEND
  5
79
330
76
100
AcDbEntity
  8
BEND
 62
     7
420
 16777215
370
    25
  0
ENDBLK
  5
75
330
72
100
AcDbEntity
  8
0
100
AcDbBlockEnd
  0
BLOCK
  5
7C
330
7A
100
AcDbEntity
  8
0
100
AcDbBlockBegin
  2
block 8
 70
     0
 10
0.0
 20
0.0
 30
0.0
  3
block 8
  1

  0
POLYLINE
  5
7E
330
7A
100
AcDbEntity
  8
BEND
 62
     7
420
 16777215
370
    25
100
AcDb2dPolyline
 66
     1
 10
0.0
 20
0.0
 30
0.0
  0
VERTEX
  5
7F
330
7E
100
AcDbEntity
  8
BEND
 62
     7
420
 16777215
370
    25
100
AcDbVertex
100
AcDb2dVertex
 10
97.0541666403405
 20
200.2287443219401
 30
0.0
  0
VERTEX
  5
80
330
7E
100
AcDbEntity
  8
BEND
 62
     7
420
 16777215
370
    25
100
AcDbVertex
100
AcDb2dVertex
 10
113.5541666403404
 20
200.2287443219401
 30
0.0
  0
SEQEND
  5
81
330
7E
100
AcDbEntity
  8
BEND
 62
     7
420
 16777215
370
    25
  0
ENDBLK
  5
7D
330
7A
100
AcDbEntity
  8
0
100
AcDbBlockEnd
  0
BLOCK
  5
84
330
82
100
AcDbEntity
  8
0
100
AcDbBlockBegin
  2
block 9
 70
     0
 10
0.0
 20
0.0
 30
0.0
  3
block 9
  1

  0
POLYLINE
  5
86
330
82
100
AcDbEntity
  8
BEND
 62
     7
420
 16777215
370
    25
100
AcDb2dPolyline
 66
     1
 10
0.0
 20
0.0
 30
0.0
  0
VERTEX
  5
87
330
86
100
AcDbEntity
  8
BEND
 62
     7
420
 16777215
370
    25
100
AcDbVertex
100
AcDb2dVertex
 10
80.19938795610656
 20
140.0581435861451
 30
0.0
  0
VERTEX
  5
88
330
86
100
AcDbEntity
  8
BEND
 62
     7
420
 16777215
370
    25
100
AcDbVertex
100
AcDb2dVertex
 10
80.19938795610656
 20
91.05814358614462
 30
0.0
  0
SEQEND
  5
89
330
86
100
AcDbEntity
  8
BEND
 62
     7
420
 16777215
370
    25
  0
ENDBLK
  5
85
330
82
100
AcDbEntity
  8
0
100
AcDbBlockEnd
  0
BLOCK
  5
8C
330
8A
100
AcDbEntity
  8
0
100
AcDbBlockBegin
  2
block 10
 70
     0
 10
0.0
 20
0.0
 30
0.0
  3
block 10
  1

  0
POLYLINE
  5
8E
330
8A
100
AcDbEntity
  8
BEND
 62
     7
420
 16777215
370
    25
100
AcDb2dPolyline
 66
     1
 10
0.0
 20
0.0
 30
0.0
  0
VERTEX
  5
8F
330
8E
100
AcDbEntity
  8
BEND
 62
     7
420
 16777215
370
    25
100
AcDbVertex
100
AcDb2dVertex
 10
74.68983058763872
 20
140.0581435861451
 30
0.0
  0
VERTEX
  5
90
330
8E
100
AcDbEntity
  8
BEND
 62
     7
420
 16777215
370
    25
100
AcDbVertex
100
AcDb2dVertex
 10
74.68983058763872
 20
91.05814358614462
 30
0.0
  0
SEQEND
  5
91
330
8E
100
AcDbEntity
  8
BEND
 62
     7
420
 16777215
370
    25
  0
ENDBLK
  5
8D
330
8A
100
AcDbEntity
  8
0
100
AcDbBlockEnd
  0
BLOCK
  5
95
330
93
100
AcDbEntity
  8
0
100
AcDbBlockBegin
  2
block 11
 70
     0
 10
0.0
 20
0.0
 30
0.0
  3
block 11
  1

  0
POLYLINE
  5
97
330
93
100
AcDbEntity
  8
BEND_EXTENT
 62
     7
420
 16777215
370
    25
100
AcDb2dPolyline
 66
     1
 10
0.0
 20
0.0
 30
0.0
  0
VERTEX
  5
98
330
97
100
AcDbEntity
  8
BEND_EXTENT
 62
     7
420
 16777215
370
    25
100
AcDbVertex
100
AcDb2dVertex
 10
97.0541666403405
 20
201.133523006174
 30
0.0
  0
VERTEX
  5
99
330
97
100
AcDbEntity
  8
BEND_EXTENT
 62
     7
420
 16777215
370
    25
100
AcDbVertex
100
AcDb2dVertex
 10
113.5541666403404
 20
201.133523006174
 30
0.0
  0
SEQEND
  5
9A
330
97
100
AcDbEntity
  8
BEND_EXTENT
 62
     7
420
 16777215
370
    25
  0
ENDBLK
  5
96
330
93
100
AcDbEntity
  8
0
100
AcDbBlockEnd
  0
BLOCK
  5
9D
330
9B
100
AcDbEntity
  8
0
100
AcDbBlockBegin
  2
block 12
 70
     0
 10
0.0
 20
0.0
 30
0.0
  3
block 12
  1

  0
POLYLINE
  5
9F
330
9B
100
AcDbEntity
  8
BEND_EXTENT
 62
     7
420
 16777215
370
    25
100
AcDb2dPolyline
 66
     1
 10
0.0
 20
0.0
 30
0.0
  0
VERTEX
  5
A0
330
9F
100
AcDbEntity
  8
BEND_EXTENT
 62
     7
420
 16777215
370
    25
100
AcDbVertex
100
AcDb2dVertex
 10
113.5541666403404
 20
199.3239656377063
 30
0.0
  0
VERTEX
  5
A1
330
9F
100
AcDbEntity
  8
BEND_EXTENT
 62
     7
420
 16777215
370
    25
100
AcDbVertex
100
AcDb2dVertex
 10
97.0541666403405
 20
199.3239656377063
 30
0.0
  0
SEQEND
  5
A2
330
9F
100
AcDbEntity
  8
BEND_EXTENT
 62
     7
420
 16777215
370
    25
  0
ENDBLK
  5
9E
330
9B
100
AcDbEntity
  8
0
100
AcDbBlockEnd
  0
BLOCK
  5
A5
330
A3
100
AcDbEntity
  8
0
100
AcDbBlockBegin
  2
block 13
 70
     0
 10
0.0
 20
0.0
 30
0.0
  3
block 13
  1

  0
POLYLINE
  5
A7
330
A3
100
AcDbEntity
  8
BEND_EXTENT
 62
     7
420
 16777215
370
    25
100
AcDb2dPolyline
 66
     1
 10
0.0
 20
0.0
 30
0.0
  0
VERTEX
  5
A8
330
A7
100
AcDbEntity
  8
BEND_EXTENT
 62
     7
420
 16777215
370
    25
100
AcDbVertex
100
AcDb2dVertex
 10
73.78505190340488
 20
91.05814358614462
 30
0.0
  0
VERTEX
  5
A9
330
A7
100
AcDbEntity
  8
BEND_EXTENT
 62
     7
420
 16777215
370
    25
100
AcDbVertex
100
AcDb2dVertex
 10
73.78505190340488
 20
140.0581435861451
 30
0.0
  0
SEQEND
  5
AA
330
A7
100
AcDbEntity
  8
BEND_EXTENT
 62
     7
420
 16777215
370
    25
  0
ENDBLK
  5
A6
330
A3
100
AcDbEntity
  8
0
100
AcDbBlockEnd
  0
BLOCK
  5
AD
330
AB
100
AcDbEntity
  8
0
100
AcDbBlockBegin
  2
block 14
 70
     0
 10
0.0
 20
0.0
 30
0.0
  3
block 14
  1

  0
POLYLINE
  5
AF
330
AB
100
AcDbEntity
  8
BEND_EXTENT
 62
     7
420
 16777215
370
    25
100
AcDb2dPolyline
 66
     1
 10
0.0
 20
0.0
 30
0.0
  0
VERTEX
  5
B0
330
AF
100
AcDbEntity
  8
BEND_EXTENT
 62
     7
420
 16777215
370
    25
100
AcDbVertex
100
AcDb2dVertex
 10
75.59460927187259
 20
140.0581435861451
 30
0.0
  0
VERTEX
  5
B1
330
AF
100
AcDbEntity
  8
BEND_EXTENT
 62
     7
420
 16777215
370
    25
100
AcDbVertex
100
AcDb2dVertex
 10
75.59460927187259
 20
91.05814358614462
 30
0.0
  0
SEQEND
  5
B2
330
AF
100
AcDbEntity
  8
BEND_EXTENT
 62
     7
420
 16777215
370
    25
  0
ENDBLK
  5
AE
330
AB
100
AcDbEntity
  8
0
100
AcDbBlockEnd
  0
BLOCK
  5
B5
330
B3
100
AcDbEntity
  8
0
100
AcDbBlockBegin
  2
block 15
 70
     0
 10
0.0
 20
0.0
 30
0.0
  3
block 15
  1

  0
POLYLINE
  5
B7
330
B3
100
AcDbEntity
  8
BEND_EXTENT
 62
     7
420
 16777215
370
    25
100
AcDb2dPolyline
 66
     1
 10
0.0
 20
0.0
 30
0.0
  0
VERTEX
  5
B8
330
B7
100
AcDbEntity
  8
BEND_EXTENT
 62
     7
420
 16777215
370
    25
100
AcDbVertex
100
AcDb2dVertex
 10
79.29460927187272
 20
91.05814358614462
 30
0.0
  0
VERTEX
  5
B9
330
B7
100
AcDbEntity
  8
BEND_EXTENT
 62
     7
420
 16777215
370
    25
100
AcDbVertex
100
AcDb2dVertex
 10
79.29460927187272
 20
140.0581435861451
 30
0.0
  0
SEQEND
  5
BA
330
B7
100
AcDbEntity
  8
BEND_EXTENT
 62
     7
420
 16777215
370
    25
  0
ENDBLK
  5
B6
330
B3
100
AcDbEntity
  8
0
100
AcDbBlockEnd
  0
BLOCK
  5
BD
330
BB
100
AcDbEntity
  8
0
100
AcDbBlockBegin
  2
block 16
 70
     0
 10
0.0
 20
0.0
 30
0.0
  3
block 16
  1

  0
POLYLINE
  5
BF
330
BB
100
AcDbEntity
  8
BEND_EXTENT
 62
     7
420
 16777215
370
    25
100
AcDb2dPolyline
 66
     1
 10
0.0
 20
0.0
 30
0.0
  0
VERTEX
  5
C0
330
BF
100
AcDbEntity
  8
BEND_EXTENT
 62
     7
420
 16777215
370
    25
100
AcDbVertex
100
AcDb2dVertex
 10
81.10416664034042
 20
140.0581435861451
 30
0.0
  0
VERTEX
  5
C1
330
BF
100
AcDbEntity
  8
BEND_EXTENT
 62
     7
420
 16777215
370
    25
100
AcDbVertex
100
AcDb2dVertex
 10
81.10416664034042
 20
91.05814358614462
 30
0.0
  0
SEQEND
  5
C2
330
BF
100
AcDbEntity
  8
BEND_EXTENT
 62
     7
420
 16777215
370
    25
  0
ENDBLK
  5
BE
330
BB
100
AcDbEntity
  8
0
100
AcDbBlockEnd
  0
BLOCK
  5
C5
330
C3
100
AcDbEntity
  8
0
100
AcDbBlockBegin
  2
block 17
 70
     0
 10
0.0
 20
0.0
 30
0.0
  3
block 17
  1

  0
POLYLINE
  5
C7
330
C3
100
AcDbEntity
  8
BEND_EXTENT
 62
     7
420
 16777215
370
    25
100
AcDb2dPolyline
 66
     1
 10
0.0
 20
0.0
 30
0.0
  0
VERTEX
  5
C8
330
C7
100
AcDbEntity
  8
BEND_EXTENT
 62
     7
420
 16777215
370
    25
100
AcDbVertex
100
AcDb2dVertex
 10
131.3137240088079
 20
147.5272583230801
 30
0.0
  0
VERTEX
  5
C9
330
C7
100
AcDbEntity
  8
BEND_EXTENT
 62
     7
420
 16777215
370
    25
100
AcDbVertex
100
AcDb2dVertex
 10
131.3137240088085
 20
195.5272583230805
 30
0.0
  0
SEQEND
  5
CA
330
C7
100
AcDbEntity
  8
BEND_EXTENT
 62
     7
420
 16777215
370
    25
  0
ENDBLK
  5
C6
330
C3
100
AcDbEntity
  8
0
100
AcDbBlockEnd
  0
BLOCK
  5
CD
330
CB
100
AcDbEntity
  8
0
100
AcDbBlockBegin
  2
block 18
 70
     0
 10
0.0
 20
0.0
 30
0.0
  3
block 18
  1

  0
POLYLINE
  5
CF
330
CB
100
AcDbEntity
  8
BEND_EXTENT
 62
     7
420
 16777215
370
    25
100
AcDb2dPolyline
 66
     1
 10
0.0
 20
0.0
 30
0.0
  0
VERTEX
  5
D0
330
CF
100
AcDbEntity
  8
BEND_EXTENT
 62
     7
420
 16777215
370
    25
100
AcDbVertex
100
AcDb2dVertex
 10
129.5041666403409
 20
195.5272583230805
 30
0.0
  0
VERTEX
  5
D1
330
CF
100
AcDbEntity
  8
BEND_EXTENT
 62
     7
420
 16777215
370
    25
100
AcDbVertex
100
AcDb2dVertex
 10
129.5041666403409
 20
147.5272583230801
 30
0.0
  0
SEQEND
  5
D2
330
CF
100
AcDbEntity
  8
BEND_EXTENT
 62
     7
420
 16777215
370
    25
  0
ENDBLK
  5
CE
330
CB
100
AcDbEntity
  8
0
100
AcDbBlockEnd
  0
BLOCK
  5
D5
330
D3
100
AcDbEntity
  8
0
100
AcDbBlockBegin
  2
block 19
 70
     0
 10
0.0
 20
0.0
 30
0.0
  3
block 19
  1

  0
POLYLINE
  5
D7
330
D3
100
AcDbEntity
  8
BEND_EXTENT
 62
     7
420
 16777215
370
    25
100
AcDb2dPolyline
 66
     1
 10
0.0
 20
0.0
 30
0.0
  0
VERTEX
  5
D8
330
D7
100
AcDbEntity
  8
BEND_EXTENT
 62
     7
420
 16777215
370
    25
100
AcDbVertex
100
AcDb2dVertex
 10
135.013724008809
 20
147.5272583230801
 30
0.0
  0
VERTEX
  5
D9
330
D7
100
AcDbEntity
  8
BEND_EXTENT
 62
     7
420
 16777215
370
    25
100
AcDbVertex
100
AcDb2dVertex
 10
135.0137240088084
 20
195.5272583230805
 30
0.0
  0
SEQEND
  5
DA
330
D7
100
AcDbEntity
  8
BEND_EXTENT
 62
     7
420
 16777215
370
    25
  0
ENDBLK
  5
D6
330
D3
100
AcDbEntity
  8
0
100
AcDbBlockEnd
  0
BLOCK
  5
DD
330
DB
100
AcDbEntity
  8
0
100
AcDbBlockBegin
  2
block 20
 70
     0
 10
0.0
 20
0.0
 30
0.0
  3
block 20
  1

  0
POLYLINE
  5
DF
330
DB
100
AcDbEntity
  8
BEND_EXTENT
 62
     7
420
 16777215
370
    25
100
AcDb2dPolyline
 66
     1
 10
0.0
 20
0.0
 30
0.0
  0
VERTEX
  5
E0
330
DF
100
AcDbEntity
  8
BEND_EXTENT
 62
     7
420
 16777215
370
    25
100
AcDbVertex
100
AcDb2dVertex
 10
118.0911920960351
 20
197.5044082692385
 30
0.0
  0
VERTEX
  5
E1
330
DF
100
AcDbEntity
  8
BEND_EXTENT
 62
     7
420
 16777215
370
    25
100
AcDbVertex
100
AcDb2dVertex
 10
92.5171411846455
 20
197.5044082692385
 30
0.0
  0
SEQEND
  5
E2
330
DF
100
AcDbEntity
  8
BEND_EXTENT
 62
     7
420
 16777215
370
    25
  0
ENDBLK
  5
DE
330
DB
100
AcDbEntity
  8
0
100
AcDbBlockEnd
  0
BLOCK
  5
E5
330
E3
100
AcDbEntity
  8
0
100
AcDbBlockBegin
  2
block 21
 70
     0
 10
0.0
 20
0.0
 30
0.0
  3
block 21
  1

  0
POLYLINE
  5
E7
330
E3
100
AcDbEntity
  8
BEND_EXTENT
 62
     7
420
 16777215
370
    25
100
AcDb2dPolyline
 66
     1
 10
0.0
 20
0.0
 30
0.0
  0
VERTEX
  5
E8
330
E7
100
AcDbEntity
  8
BEND_EXTENT
 62
     7
420
 16777215
370
    25
100
AcDbVertex
100
AcDb2dVertex
 10
81.30416664034043
 20
146.5272583230807
 30
0.0
  0
VERTEX
  5
E9
330
E7
100
AcDbEntity
  8
BEND_EXTENT
 62
     7
420
 16777215
370
    25
100
AcDbVertex
100
AcDb2dVertex
 10
129.3041666403402
 20
146.5272583230807
 30
0.0
  0
SEQEND
  5
EA
330
E7
100
AcDbEntity
  8
BEND_EXTENT
 62
     7
420
 16777215
370
    25
  0
ENDBLK
  5
E6
330
E3
100
AcDbEntity
  8
0
100
AcDbBlockEnd
  0
BLOCK
  5
ED
330
EB
100
AcDbEntity
  8
0
100
AcDbBlockBegin
  2
block 22
 70
     0
 10
0.0
 20
0.0
 30
0.0
  3
block 22
  1

  0
POLYLINE
  5
EF
330
EB
100
AcDbEntity
  8
BEND_EXTENT
 62
     7
420
 16777215
370
    25
100
AcDb2dPolyline
 66
     1
 10
0.0
 20
0.0
 30
0.0
  0
VERTEX
  5
F0
330
EF
100
AcDbEntity
  8
BEND_EXTENT
 62
     7
420
 16777215
370
    25
100
AcDbVertex
100
AcDb2dVertex
 10
136.8232813772761
 20
195.5272583230805
 30
0.0
  0
VERTEX
  5
F1
330
EF
100
AcDbEntity
  8
BEND_EXTENT
 62
     7
420
 16777215
370
    25
100
AcDbVertex
100
AcDb2dVertex
 10
136.8232813772761
 20
147.5272583230801
 30
0.0
  0
SEQEND
  5
F2
330
EF
100
AcDbEntity
  8
BEND_EXTENT
 62
     7
420
 16777215
370
    25
  0
ENDBLK
  5
EE
330
EB
100
AcDbEntity
  8
0
100
AcDbBlockEnd
  0
BLOCK
  5
F5
330
F3
100
AcDbEntity
  8
0
100
AcDbBlockBegin
  2
block 23
 70
     0
 10
0.0
 20
0.0
 30
0.0
  3
block 23
  1

  0
POLYLINE
  5
F7
330
F3
100
AcDbEntity
  8
BEND_EXTENT
 62
     7
420
 16777215
370
    25
100
AcDb2dPolyline
 66
     1
 10
0.0
 20
0.0
 30
0.0
  0
VERTEX
  5
F8
330
F7
100
AcDbEntity
  8
BEND_EXTENT
 62
     7
420
 16777215
370
    25
100
AcDbVertex
100
AcDb2dVertex
 10
97.0541666403405
 20
199.3139656377062
 30
0.0
  0
VERTEX
  5
F9
330
F7
100
AcDbEntity
  8
BEND_EXTENT
 62
     7
420
 16777215
370
    25
100
AcDbVertex
100
AcDb2dVertex
 10
113.5541666403404
 20
199.3139656377062
 30
0.0
  0
SEQEND
  5
FA
330
F7
100
AcDbEntity
  8
BEND_EXTENT
 62
     7
420
 16777215
370
    25
  0
ENDBLK
  5
F6
330
F3
100
AcDbEntity
  8
0
100
AcDbBlockEnd
  0
BLOCK
  5
FD
330
FB
100
AcDbEntity
  8
0
100
AcDbBlockBegin
  2
block 24
 70
     0
 10
0.0
 20
0.0
 30
0.0
  3
block 24
  1

  0
POLYLINE
  5
FF
330
FB
100
AcDbEntity
  8
BEND_EXTENT
 62
     7
420
 16777215
370
    25
100
AcDb2dPolyline
 66
     1
 10
0.0
 20
0.0
 30
0.0
  0
VERTEX
  5
100
330
FF
100
AcDbEntity
  8
BEND_EXTENT
 62
     7
420
 16777215
370
    25
100
AcDbVertex
100
AcDb2dVertex
 10
129.3041666403402
 20
140.0581435861451
 30
0.0
  0
VERTEX
  5
101
330
FF
100
AcDbEntity
  8
BEND_EXTENT
 62
     7
420
 16777215
370
    25
100
AcDbVertex
100
AcDb2dVertex
 10
81.30416664034043
 20
140.0581435861451
 30
0.0
  0
SEQEND
  5
102
330
FF
100
AcDbEntity
  8
BEND_EXTENT
 62
     7
420
 16777215
370
    25
  0
ENDBLK
  5
FE
330
FB
100
AcDbEntity
  8
0
100
AcDbBlockEnd
  0
BLOCK
  5
105
330
103
100
AcDbEntity
  8
0
100
AcDbBlockBegin
  2
block 25
 70
     0
 10
0.0
 20
0.0
 30
0.0
  3
block 25
  1

  0
POLYLINE
  5
107
330
103
100
AcDbEntity
  8
BEND_EXTENT
 62
     7
420
 16777215
370
    25
100
AcDb2dPolyline
 66
     1
 10
0.0
 20
0.0
 30
0.0
  0
VERTEX
  5
108
330
107
100
AcDbEntity
  8
BEND_EXTENT
 62
     7
420
 16777215
370
    25
100
AcDbVertex
100
AcDb2dVertex
 10
129.3041666403402
 20
141.8677009546128
 30
0.0
  0
VERTEX
  5
109
330
107
100
AcDbEntity
  8
BEND_EXTENT
 62
     7
420
 16777215
370
    25
100
AcDbVertex
100
AcDb2dVertex
 10
81.30416664034043
 20
141.8677009546128
 30
0.0
  0
SEQEND
  5
10A
330
107
100
AcDbEntity
  8
BEND_EXTENT
 62
     7
420
 16777215
370
    25
  0
ENDBLK
  5
106
330
103
100
AcDbEntity
  8
0
100
AcDbBlockEnd
  0
BLOCK
  5
10D
330
10B
100
AcDbEntity
  8
0
100
AcDbBlockBegin
  2
block 26
 70
     0
 10
0.0
 20
0.0
 30
0.0
  3
block 26
  1

  0
POLYLINE
  5
10F
330
10B
100
AcDbEntity
  8
BEND_EXTENT
 62
     7
420
 16777215
370
    25
100
AcDb2dPolyline
 66
     1
 10
0.0
 20
0.0
 30
0.0
  0
VERTEX
  5
110
330
10F
100
AcDbEntity
  8
BEND_EXTENT
 62
     7
420
 16777215
370
    25
100
AcDbVertex
100
AcDb2dVertex
 10
129.3041666403402
 20
144.7177009546124
 30
0.0
  0
VERTEX
  5
111
330
10F
100
AcDbEntity
  8
BEND_EXTENT
 62
     7
420
 16777215
370
    25
100
AcDbVertex
100
AcDb2dVertex
 10
81.30416664034043
 20
144.7177009546124
 30
0.0
  0
SEQEND
  5
112
330
10F
100
AcDbEntity
  8
BEND_EXTENT
 62
     7
420
 16777215
370
    25
  0
ENDBLK
  5
10E
330
10B
100
AcDbEntity
  8
0
100
AcDbBlockEnd
  0
BLOCK
  5
116
330
114
100
AcDbEntity
  8
0
100
AcDbBlockBegin
  2
block 27
 70
     0
 10
0.0
 20
0.0
 30
0.0
  3
block 27
  1

  0
POLYLINE
  5
118
330
114
100
AcDbEntity
  8
BEND_EXTENT
 62
     7
420
 16777215
370
    25
100
AcDb2dPolyline
 66
     1
 10
0.0
 20
0.0
 30
0.0
  0
VERTEX
  5
119
330
118
100
AcDbEntity
  8
BEND_EXTENT
 62
     7
420
 16777215
370
    25
100
AcDbVertex
100
AcDb2dVertex
 10
94.58565391236321
 20
88.17621495514767
 30
0.0
  0
VERTEX
  5
11A
330
118
100
AcDbEntity
  8
BEND_EXTENT
 62
     7
420
 16777215
370
    25
100
AcDbVertex
100
AcDb2dVertex
 10
115.6226793680581
 20
88.17621495420309
 30
0.0
  0
SEQEND
  5
11B
330
118
100
AcDbEntity
  8
BEND_EXTENT
 62
     7
420
 16777215
370
    25
  0
ENDBLK
  5
117
330
114
100
AcDbEntity
  8
0
100
AcDbBlockEnd
  0
BLOCK
  5
11E
330
11C
100
AcDbEntity
  8
0
100
AcDbBlockBegin
  2
block 28
 70
     0
 10
0.0
 20
0.0
 30
0.0
  3
block 28
  1

  0
POLYLINE
  5
120
330
11C
100
AcDbEntity
  8
BEND_EXTENT
 62
     7
420
 16777215
370
    25
100
AcDb2dPolyline
 66
     1
 10
0.0
 20
0.0
 30
0.0
  0
VERTEX
  5
121
330
120
100
AcDbEntity
  8
BEND_EXTENT
 62
     7
420
 16777215
370
    25
100
AcDbVertex
100
AcDb2dVertex
 10
96.85416664012969
 20
86.3566575865779
 30
0.0
  0
VERTEX
  5
122
330
120
100
AcDbEntity
  8
BEND_EXTENT
 62
     7
420
 16777215
370
    25
100
AcDbVertex
100
AcDb2dVertex
 10
113.3541666401293
 20
86.35665758583738
 30
0.0
  0
SEQEND
  5
123
330
120
100
AcDbEntity
  8
BEND_EXTENT
 62
     7
420
 16777215
370
    25
  0
ENDBLK
  5
11F
330
11C
100
AcDbEntity
  8
0
100
AcDbBlockEnd
  0
BLOCK
  5
126
330
124
100
AcDbEntity
  8
0
100
AcDbBlockBegin
  2
block 29
 70
     0
 10
0.0
 20
0.0
 30
0.0
  3
block 29
  1

  0
POLYLINE
  5
128
330
124
100
AcDbEntity
  8
BEND_EXTENT
 62
     7
420
 16777215
370
    25
100
AcDb2dPolyline
 66
     1
 10
0.0
 20
0.0
 30
0.0
  0
VERTEX
  5
129
330
128
100
AcDbEntity
  8
BEND_EXTENT
 62
     7
420
 16777215
370
    25
100
AcDbVertex
100
AcDb2dVertex
 10
96.85416664008926
 20
85.45187890234469
 30
0.0
  0
VERTEX
  5
12A
330
128
100
AcDbEntity
  8
BEND_EXTENT
 62
     7
420
 16777215
370
    25
100
AcDbVertex
100
AcDb2dVertex
 10
113.3541666400889
 20
85.45187890160418
 30
0.0
  0
SEQEND
  5
12B
330
128
100
AcDbEntity
  8
BEND_EXTENT
 62
     7
420
 16777215
370
    25
  0
ENDBLK
  5
127
330
124
100
AcDbEntity
  8
0
100
AcDbBlockEnd
  0
BLOCK
  5
12E
330
12C
100
AcDbEntity
  8
0
100
AcDbBlockBegin
  2
block 30
 70
     0
 10
0.0
 20
0.0
 30
0.0
  3
block 30
  1

  0
POLYLINE
  5
130
330
12C
100
AcDbEntity
  8
BEND_EXTENT
 62
     7
420
 16777215
370
    25
100
AcDb2dPolyline
 66
     1
 10
0.0
 20
0.0
 30
0.0
  0
VERTEX
  5
131
330
130
100
AcDbEntity
  8
BEND_EXTENT
 62
     7
420
 16777215
370
    25
100
AcDbVertex
100
AcDb2dVertex
 10
113.3541666401697
 20
87.26143627007187
 30
0.0
  0
VERTEX
  5
132
330
130
100
AcDbEntity
  8
BEND_EXTENT
 62
     7
420
 16777215
370
    25
100
AcDbVertex
100
AcDb2dVertex
 10
96.85416664017012
 20
87.2614362708124
 30
0.0
  0
SEQEND
  5
133
330
130
100
AcDbEntity
  8
BEND_EXTENT
 62
     7
420
 16777215
370
    25
  0
ENDBLK
  5
12F
330
12C
100
AcDbEntity
  8
0
100
AcDbBlockEnd
  0
BLOCK
  5
136
330
134
100
AcDbEntity
  8
0
100
AcDbBlockBegin
  2
block 31
 70
     0
 10
0.0
 20
0.0
 30
0.0
  3
block 31
  1

  0
POLYLINE
  5
138
330
134
100
AcDbEntity
  8
BEND_EXTENT
 62
     7
420
 16777215
370
    25
100
AcDb2dPolyline
 66
     1
 10
0.0
 20
0.0
 30
0.0
  0
VERTEX
  5
139
330
138
100
AcDbEntity
  8
BEND_EXTENT
 62
     7
420
 16777215
370
    25
100
AcDbVertex
100
AcDb2dVertex
 10
117.8911920959466
 20
89.08099363833556
 30
0.0
  0
VERTEX
  5
13A
330
138
100
AcDbEntity
  8
BEND_EXTENT
 62
     7
420
 16777215
370
    25
100
AcDbVertex
100
AcDb2dVertex
 10
92.31714118455693
 20
89.08099363948419
 30
0.0
  0
SEQEND
  5
13B
330
138
100
AcDbEntity
  8
BEND_EXTENT
 62
     7
420
 16777215
370
    25
  0
ENDBLK
  5
137
330
134
100
AcDbEntity
  8
0
100
AcDbBlockEnd
  0
BLOCK
  5
13E
330
13C
100
AcDbEntity
  8
0
100
AcDbBlockBegin
  2
block 32
 70
     0
 10
0.0
 20
0.0
 30
0.0
  3
block 32
  1

  0
POLYLINE
  5
140
330
13C
100
AcDbEntity
  8
BEND_EXTENT
 62
     7
420
 16777215
370
    25
100
AcDb2dPolyline
 66
     1
 10
0.0
 20
0.0
 30
0.0
  0
VERTEX
  5
141
330
140
100
AcDbEntity
  8
BEND_EXTENT
 62
     7
420
 16777215
370
    25
100
AcDbVertex
100
AcDb2dVertex
 10
96.85416664017076
 20
87.27143627081243
 30
0.0
  0
VERTEX
  5
142
330
140
100
AcDbEntity
  8
BEND_EXTENT
 62
     7
420
 16777215
370
    25
100
AcDbVertex
100
AcDb2dVertex
 10
113.3541666401704
 20
87.2714362700719
 30
0.0
  0
SEQEND
  5
143
330
140
100
AcDbEntity
  8
BEND_EXTENT
 62
     7
420
 16777215
370
    25
  0
ENDBLK
  5
13F
330
13C
100
AcDbEntity
  8
0
100
AcDbBlockEnd
  0
ENDSEC
  0
SECTION
  2
ENTITIES
  0
INSERT
  5
42
330
1F
100
AcDbEntity
  8
OUTER_PROFILES
100
AcDbBlockReference
  2
block 2
 10
0.0
 20
0.0
 30
0.0
  0
POLYLINE
  5
49
330
1F
100
AcDbEntity
  8
OUTER_PROFILES
 62
     7
420
 16777215
370
    25
100
AcDb2dPolyline
 66
     1
 10
0.0
 20
0.0
 30
0.0
  0
VERTEX
  5
4A
330
49
100
AcDbEntity
  8
OUTER_PROFILES
 62
     7
420
 16777215
370
    25
100
AcDbVertex
100
AcDb2dVertex
 10
105.3041666403406
 20
225.9755657108798
 30
0.0
  0
VERTEX
  5
145
330
49
100
AcDbEntity
  8
0
100
AcDbVertex
100
AcDb2dVertex
 10
105.3041666403406
 20
225.9755657108798
 30
0.0
  0
SEQEND
  5
4B
330
49
100
AcDbEntity
  8
OUTER_PROFILES
 62
     7
420
 16777215
370
    25
  0
POLYLINE
  5
4C
330
1F
100
AcDbEntity
  8
OUTER_PROFILES
 62
     7
420
 16777215
370
    25
100
AcDb2dPolyline
 66
     1
 10
0.0
 20
0.0
 30
0.0
  0
VERTEX
  5
4D
330
4C
100
AcDbEntity
  8
OUTER_PROFILES
 62
     7
420
 16777215
370
    25
100
AcDbVertex
100
AcDb2dVertex
 10
105.3041666403406
 20
148.695833295082
 30
0.0
  0
VERTEX
  5
146
330
4C
100
AcDbEntity
  8
0
100
AcDbVertex
100
AcDb2dVertex
 10
105.3041666403406
 20
148.695833295082
 30
0.0
  0
SEQEND
  5
4E
330
4C
100
AcDbEntity
  8
OUTER_PROFILES
 62
     7
420
 16777215
370
    25
  0
SPLINE
  5
4F
330
1F
100
AcDbEntity
  8
OUTER_PROFILES
 62
     7
420
 16777215
370
    25
100
AcDbSpline
210
0.0
220
0.0
230
1.0
 70
    11
 71
     3
 72
    17
 73
    13
 74
     0
 42
0.0000000001
 43
0.0000000001
 12
1.0
 22
0.0
 32
0.0
 13
1.0
 23
0.0
 33
0.0
 40
0.0
 40
0.0
 40
0.0
 40
0.0
 40
1.0
 40
1.0
 40
1.0
 40
2.0
 40
2.0
 40
2.0
 40
3.0
 40
3.0
 40
3.0
 40
4.0
 40
4.0
 40
4.0
 40
4.0
 10
103.3059259542755
 20
194.7477309746175
 30
0.0
 10
103.3059259542755
 20
193.6431614753432
 30
0.0
 10
104.2013564544517
 20
192.7477309752072
 30
0.0
 10
105.3059259537754
 20
192.7477309752072
 30
0.0
 10
106.4104954530998
 20
192.7477309752072
 30
0.0
 10
107.3059259532756
 20
193.6431614753432
 30
0.0
 10
107.3059259532756
 20
194.7477309746175
 30
0.0
 10
107.3059259532756
 20
195.8523004738915
 30
0.0
 10
106.4104954530998
 20
196.7477309740276
 30
0.0
 10
105.3059259537754
 20
196.7477309740276
 30
0.0
 10
104.2013564544517
 20
196.7477309740276
 30
0.0
 10
103.3059259542755
 20
195.8523004738915
 30
0.0
 10
103.3059259542755
 20
194.7477309746175
 30
0.0
  0
SPLINE
  5
50
330
1F
100
AcDbEntity
  8
OUTER_PROFILES
 62
     7
420
 16777215
370
    25
100
AcDbSpline
210
0.0
220
0.0
230
1.0
 70
    11
 71
     3
 72
    17
 73
    13
 74
     0
 42
0.0000000001
 43
0.0000000001
 12
1.0
 22
0.0
 32
0.0
 13
1.0
 23
0.0
 33
0.0
 40
0.0
 40
0.0
 40
0.0
 40
0.0
 40
1.0
 40
1.0
 40
1.0
 40
2.0
 40
2.0
 40
2.0
 40
3.0
 40
3.0
 40
3.0
 40
4.0
 40
4.0
 40
4.0
 40
4.0
 10
107.1041666398402
 20
91.83943024804206
 30
0.0
 10
107.1041666398402
 20
92.9439997473164
 30
0.0
 10
106.2087361396637
 20
93.83943024745241
 30
0.0
 10
105.10416664034
 20
93.83943024745241
 30
0.0
 10
103.9995971410156
 20
93.83943024745241
 30
0.0
 10
103.1041666408398
 20
92.9439997473164
 30
0.0
 10
103.1041666408398
 20
91.83943024804206
 30
0.0
 10
103.1041666408398
 20
90.73486074876774
 30
0.0
 10
103.9995971410156
 20
89.83943024863237
 30
0.0
 10
105.10416664034
 20
89.83943024863237
 30
0.0
 10
106.2087361396637
 20
89.83943024863237
 30
0.0
 10
107.1041666398402
 20
90.73486074876774
 30
0.0
 10
107.1041666398402
 20
91.83943024804206
 30
0.0
  0
INSERT
  5
53
330
1F
100
AcDbEntity
  8
BEND
100
AcDbBlockReference
  2
block 3
 10
0.0
 20
0.0
 30
0.0
  0
INSERT
  5
5B
330
1F
100
AcDbEntity
  8
BEND
100
AcDbBlockReference
  2
block 4
 10
0.0
 20
0.0
 30
0.0
  0
INSERT
  5
63
330
1F
100
AcDbEntity
  8
BEND
100
AcDbBlockReference
  2
block 5
 10
0.0
 20
0.0
 30
0.0
  0
INSERT
  5
6B
330
1F
100
AcDbEntity
  8
BEND
100
AcDbBlockReference
  2
block 6
 10
0.0
 20
0.0
 30
0.0
  0
INSERT
  5
73
330
1F
100
AcDbEntity
  8
BEND
100
AcDbBlockReference
  2
block 7
 10
0.0
 20
0.0
 30
0.0
  0
INSERT
  5
7B
330
1F
100
AcDbEntity
  8
BEND
100
AcDbBlockReference
  2
block 8
 10
0.0
 20
0.0
 30
0.0
  0
INSERT
  5
83
330
1F
100
AcDbEntity
  8
BEND
100
AcDbBlockReference
  2
block 9
 10
0.0
 20
0.0
 30
0.0
  0
INSERT
  5
8B
330
1F
100
AcDbEntity
  8
BEND
100
AcDbBlockReference
  2
block 10
 10
0.0
 20
0.0
 30
0.0
  0
INSERT
  5
94
330
1F
100
AcDbEntity
  8
BEND_EXTENT
100
AcDbBlockReference
  2
block 11
 10
0.0
 20
0.0
 30
0.0
  0
INSERT
  5
9C
330
1F
100
AcDbEntity
  8
BEND_EXTENT
100
AcDbBlockReference
  2
block 12
 10
0.0
 20
0.0
 30
0.0
  0
INSERT
  5
A4
330
1F
100
AcDbEntity
  8
BEND_EXTENT
100
AcDbBlockReference
  2
block 13
 10
0.0
 20
0.0
 30
0.0
  0
INSERT
  5
AC
330
1F
100
AcDbEntity
  8
BEND_EXTENT
100
AcDbBlockReference
  2
block 14
 10
0.0
 20
0.0
 30
0.0
  0
INSERT
  5
B4
330
1F
100
AcDbEntity
  8
BEND_EXTENT
100
AcDbBlockReference
  2
block 15
 10
0.0
 20
0.0
 30
0.0
  0
INSERT
  5
BC
330
1F
100
AcDbEntity
  8
BEND_EXTENT
100
AcDbBlockReference
  2
block 16
 10
0.0
 20
0.0
 30
0.0
  0
INSERT
  5
C4
330
1F
100
AcDbEntity
  8
BEND_EXTENT
100
AcDbBlockReference
  2
block 17
 10
0.0
 20
0.0
 30
0.0
  0
INSERT
  5
CC
330
1F
100
AcDbEntity
  8
BEND_EXTENT
100
AcDbBlockReference
  2
block 18
 10
0.0
 20
0.0
 30
0.0
  0
INSERT
  5
D4
330
1F
100
AcDbEntity
  8
BEND_EXTENT
100
AcDbBlockReference
  2
block 19
 10
0.0
 20
0.0
 30
0.0
  0
INSERT
  5
DC
330
1F
100
AcDbEntity
  8
BEND_EXTENT
100
AcDbBlockReference
  2
block 20
 10
0.0
 20
0.0
 30
0.0
  0
INSERT
  5
E4
330
1F
100
AcDbEntity
  8
BEND_EXTENT
100
AcDbBlockReference
  2
block 21
 10
0.0
 20
0.0
 30
0.0
  0
INSERT
  5
EC
330
1F
100
AcDbEntity
  8
BEND_EXTENT
100
AcDbBlockReference
  2
block 22
 10
0.0
 20
0.0
 30
0.0
  0
INSERT
  5
F4
330
1F
100
AcDbEntity
  8
BEND_EXTENT
100
AcDbBlockReference
  2
block 23
 10
0.0
 20
0.0
 30
0.0
  0
INSERT
  5
FC
330
1F
100
AcDbEntity
  8
BEND_EXTENT
100
AcDbBlockReference
  2
block 24
 10
0.0
 20
0.0
 30
0.0
  0
INSERT
  5
104
330
1F
100
AcDbEntity
  8
BEND_EXTENT
100
AcDbBlockReference
  2
block 25
 10
0.0
 20
0.0
 30
0.0
  0
INSERT
  5
10C
330
1F
100
AcDbEntity
  8
BEND_EXTENT
100
AcDbBlockReference
  2
block 26
 10
0.0
 20
0.0
 30
0.0
  0
SPLINE
  5
113
330
1F
100
AcDbEntity
  8
BEND_EXTENT
 62
     7
420
 16777215
370
    25
100
AcDbSpline
210
0.0
220
0.0
230
1.0
 70
     8
 71
     3
 72
    38
 73
    34
 74
     0
 42
0.0000000001
 43
0.0000000001
 12
1.0
 22
0.0
 32
0.0
 13
1.0
 23
0.0
 33
0.0
 40
0.0
 40
0.0
 40
0.0
 40
0.0
 40
1.0
 40
1.0
 40
1.0
 40
2.0
 40
2.0
 40
2.0
 40
3.0
 40
3.0
 40
3.0
 40
4.0
 40
4.0
 40
4.0
 40
5.0
 40
5.0
 40
5.0
 40
6.0
 40
6.0
 40
6.0
 40
7.0
 40
7.0
 40
7.0
 40
8.0
 40
8.0
 40
8.0
 40
9.0
 40
9.0
 40
9.0
 40
10.0
 40
10.0
 40
10.0
 40
11.0
 40
11.0
 40
11.0
 40
11.0
 10
81.10416664034042
 20
91.05814358614462
 30
0.0
 10
81.10416664034042
 20
91.05814358614462
 30
0.0
 10
92.31714118455693
 20
89.08099363948419
 30
0.0
 10
92.31714118455693
 20
89.08099363948419
 30
0.0
 10
92.31714118455693
 20
89.08099363948419
 30
0.0
 10
95.59509350652004
 20
87.77360781227259
 30
0.0
 10
95.59509350652004
 20
87.77360781227259
 30
0.0
 10
96.35538963741982
 20
87.47036960488366
 30
0.0
 10
96.85416664014701
 20
86.73445119664551
 30
0.0
 10
96.8541666401098
 20
85.91591370997739
 30
0.0
 10
96.8541666401098
 20
85.91591370997739
 30
0.0
 10
96.85416663994553
 20
82.25187890184405
 30
0.0
 10
96.85416663994553
 20
82.25187890184405
 30
0.0
 10
96.85416663989612
 20
81.14730940245872
 30
0.0
 10
97.7495971399699
 20
80.25187890230472
 30
0.0
 10
98.85416663935523
 20
80.25187890225467
 30
0.0
 10
98.85416663935523
 20
80.25187890225467
 30
0.0
 10
111.3541666403551
 20
80.25187890169383
 30
0.0
 10
111.3541666403551
 20
80.25187890169383
 30
0.0
 10
112.4587361397405
 20
80.25187890164378
 30
0.0
 10
113.3541666398957
 20
81.14730940171819
 30
0.0
 10
113.3541666399451
 20
82.25187890110354
 30
0.0
 10
113.3541666399451
 20
82.25187890110354
 30
0.0
 10
113.3541666401094
 20
85.91591370923688
 30
0.0
 10
113.3541666401094
 20
85.91591370923688
 30
0.0
 10
113.3541666401466
 20
86.734451195905
 30
0.0
 10
113.8529436429386
 20
87.47036960409821
 30
0.0
 10
114.6132397738654
 20
87.77360781141913
 30
0.0
 10
114.6132397738654
 20
87.77360781141913
 30
0.0
 10
117.8911920959472
 20
89.08099363833556
 30
0.0
 10
117.8911920959472
 20
89.08099363833556
 30
0.0
 10
117.8911920959472
 20
89.08099363833556
 30
0.0
 10
129.1041666403402
 20
91.05814358398979
 30
0.0
 10
129.1041666403402
 20
91.05814358398979
 30
0.0
  0
INSERT
  5
115
330
1F
100
AcDbEntity
  8
BEND_EXTENT
100
AcDbBlockReference
  2
block 27
 10
0.0
 20
0.0
 30
0.0
  0
INSERT
  5
11D
330
1F
100
AcDbEntity
  8
BEND_EXTENT
100
AcDbBlockReference
  2
block 28
 10
0.0
 20
0.0
 30
0.0
  0
INSERT
  5
125
330
1F
100
AcDbEntity
  8
BEND_EXTENT
100
AcDbBlockReference
  2
block 29
 10
0.0
 20
0.0
 30
0.0
  0
INSERT
  5
12D
330
1F
100
AcDbEntity
  8
BEND_EXTENT
100
AcDbBlockReference
  2
block 30
 10
0.0
 20
0.0
 30
0.0
  0
INSERT
  5
135
330
1F
100
AcDbEntity
  8
BEND_EXTENT
100
AcDbBlockReference
  2
block 31
 10
0.0
 20
0.0
 30
0.0
  0
INSERT
  5
13D
330
1F
100
AcDbEntity
  8
BEND_EXTENT
100
AcDbBlockReference
  2
block 32
 10
0.0
 20
0.0
 30
0.0
  0
ENDSEC
  0
SECTION
  2
OBJECTS
  0
DICTIONARY
  5
C
330
0
100
AcDbDictionary
281
     1
  3
ACAD_GROUP
350
D
  3
ACAD_LAYOUT
350
1A
  3
ACAD_MATERIAL
350
3B
  3
ACAD_MLEADERSTYLE
350
148
  3
ACAD_MLINESTYLE
350
17
  3
ACAD_PLOTSETTINGS
350
19
  3
ACAD_PLOTSTYLENAME
350
E
  3
ACAD_TABLESTYLE
350
147
  3
ACAD_VISUALSTYLE
350
2A
  0
SUN
  5
3F
330
29
100
AcDbSun
 90
        1
290
     0
 63
     7
421
 16777215
 40
1.0
291
     1
 91
  2455826
 92
 54000000
292
     0
 70
     2
 71
   256
280
     1
  0
DICTIONARY
  5
D
102
{ACAD_REACTORS
330
C
102
}
330
C
100
AcDbDictionary
281
     1
  0
DICTIONARY
  5
1A
102
{ACAD_REACTORS
330
C
102
}
330
C
100
AcDbDictionary
281
     1
  3
Layout1
350
1E
  3
Layout2
350
26
  3
Model
350
22
  0
DICTIONARY
  5
3B
102
{ACAD_REACTORS
330
C
102
}
330
C
100
AcDbDictionary
281
     1
  3
ByBlock
350
3D
  3
ByLayer
350
3C
  3
Global
350
3E
  0
DICTIONARY
  5
148
102
{ACAD_REACTORS
330
C
102
}
330
C
100
AcDbDictionary
281
     1
  0
DICTIONARY
  5
17
102
{ACAD_REACTORS
330
C
102
}
330
C
100
AcDbDictionary
281
     1
  3
Standard
350
18
  0
DICTIONARY
  5
19
102
{ACAD_REACTORS
330
C
102
}
330
C
100
AcDbDictionary
281
     1
  0
ACDBDICTIONARYWDFLT
  5
E
102
{ACAD_REACTORS
330
C
102
}
330
C
100
AcDbDictionary
281
     1
  3
Normal
350
F
100
AcDbDictionaryWithDefault
340
F
  0
DICTIONARY
  5
147
102
{ACAD_REACTORS
330
C
102
}
330
C
100
AcDbDictionary
281
     1
  0
DICTIONARY
  5
2A
102
{ACAD_REACTORS
330
C
102
}
330
C
100
AcDbDictionary
281
     1
  3
2dWireframe
350
2F
  3
3D Hidden
350
31
  3
3dWireframe
350
30
  3
Basic
350
32
  3
Brighten
350
36
  3
ColorChange
350
3A
  3
Conceptual
350
34
  3
Dim
350
35
  3
Facepattern
350
39
  3
Flat
350
2B
  3
FlatWithEdges
350
2C
  3
Gouraud
350
2D
  3
GouraudWithEdges
350
2E
  3
Linepattern
350
38
  3
Realistic
350
33
  3
Thicken
350
37
  0
LAYOUT
  5
1E
102
{ACAD_REACTORS
330
1A
102
}
330
1A
100
AcDbPlotSettings
  1

  2
none_device
  4

  6

 40
0.0
 41
0.0
 42
0.0
 43
0.0
 44
0.0
 45
0.0
 46
0.0
 47
0.0
 48
0.0
 49
0.0
140
0.0
141
0.0
142
1.0
143
1.0
 70
   688
 72
     0
 73
     0
 74
     5
  7

 75
    16
 76
     0
 77
     2
 78
   300
147
1.0
148
0.0
149
0.0
100
AcDbLayout
  1
Layout1
 70
     1
 71
     1
 10
0.0
 20
0.0
 11
12.0
 21
9.0
 12
0.0
 22
0.0
 32
0.0
 14
1.000000000000000E+20
 24
1.000000000000000E+20
 34
1.000000000000000E+20
 15
-1.000000000000000E+20
 25
-1.000000000000000E+20
 35
-1.000000000000000E+20
146
0.0
 13
0.0
 23
0.0
 33
0.0
 16
1.0
 26
0.0
 36
0.0
 17
0.0
 27
1.0
 37
0.0
 76
     0
330
1B
  0
LAYOUT
  5
26
102
{ACAD_REACTORS
330
1A
102
}
330
1A
100
AcDbPlotSettings
  1

  2
none_device
  4

  6

 40
0.0
 41
0.0
 42
0.0
 43
0.0
 44
0.0
 45
0.0
 46
0.0
 47
0.0
 48
0.0
 49
0.0
140
0.0
141
0.0
142
1.0
143
1.0
 70
   688
 72
     0
 73
     0
 74
     5
  7

 75
    16
 76
     0
 77
     2
 78
   300
147
1.0
148
0.0
149
0.0
100
AcDbLayout
  1
Layout2
 70
     1
 71
     2
 10
0.0
 20
0.0
 11
0.0
 21
0.0
 12
0.0
 22
0.0
 32
0.0
 14
0.0
 24
0.0
 34
0.0
 15
0.0
 25
0.0
 35
0.0
146
0.0
 13
0.0
 23
0.0
 33
0.0
 16
1.0
 26
0.0
 36
0.0
 17
0.0
 27
1.0
 37
0.0
 76
     0
330
23
  0
LAYOUT
  5
22
102
{ACAD_REACTORS
330
1A
102
}
330
1A
100
AcDbPlotSettings
  1

  2
none_device
  4

  6

 40
0.0
 41
0.0
 42
0.0
 43
0.0
 44
0.0
 45
0.0
 46
0.0
 47
0.0
 48
0.0
 49
0.0
140
0.0
141
0.0
142
1.0
143
1.0
 70
  1712
 72
     0
 73
     0
 74
     0
  7

 75
     0
 76
     0
 77
     2
 78
   300
147
1.0
148
0.0
149
0.0
100
AcDbLayout
  1
Model
 70
     1
 71
     0
 10
0.0
 20
0.0
 11
12.0
 21
9.0
 12
0.0
 22
0.0
 32
0.0
 14
1.000000000000000E+20
 24
1.000000000000000E+20
 34
1.000000000000000E+20
 15
-1.000000000000000E+20
 25
-1.000000000000000E+20
 35
-1.000000000000000E+20
146
0.0
 13
0.0
 23
0.0
 33
0.0
 16
1.0
 26
0.0
 36
0.0
 17
0.0
 27
1.0
 37
0.0
 76
     0
330
1F
331
29
  0
MATERIAL
  5
3D
102
{ACAD_REACTORS
330
3B
102
}
330
3B
100
AcDbMaterial
  1
ByBlock
 72
     1
 94
      127
  0
MATERIAL
  5
3C
102
{ACAD_REACTORS
330
3B
102
}
330
3B
100
AcDbMaterial
  1
ByLayer
 72
     1
 94
      127
  0
MATERIAL
  5
3E
102
{ACAD_REACTORS
330
3B
102
}
330
3B
100
AcDbMaterial
  1
Global
 72
     1
 94
      127
  0
MLINESTYLE
  5
18
102
{ACAD_REACTORS
330
17
102
}
330
17
100
AcDbMlineStyle
  2
Standard
 70
     0
  3

 62
   256
 51
90.0
 52
90.0
 71
     2
 49
0.5
 62
   256
  6
BYLAYER
 49
-0.5
 62
   256
  6
BYLAYER
  0
ACDBPLACEHOLDER
  5
F
102
{ACAD_REACTORS
330
E
102
}
330
E
  0
VISUALSTYLE
  5
2F
102
{ACAD_REACTORS
330
2A
102
}
330
2A
100
AcDbVisualStyle
  2
2dWireframe
 70
     4
177
     2
291
     0
 71
     0
176
     1
 72
     2
176
     1
 73
     0
176
     1
 90
        0
176
     1
 40
-0.6
176
     1
 41
-30.0
176
     1
 62
     5
 63
     7
421
 16777215
176
     1
 74
     1
176
     1
 91
        4
176
     1
 64
     7
176
     1
 65
   257
176
     1
 75
     1
176
     1
175
     1
176
     1
 42
1.0
176
     1
 92
        0
176
     1
 66
   257
176
     1
 43
1.0
176
     1
 76
     1
176
     1
 77
     6
176
     1
 78
     2
176
     1
 67
     7
176
     1
 79
     5
176
     1
170
     0
176
     1
171
     0
176
     1
290
     0
176
     1
 93
        1
176
     1
 44
0.0
176
     1
173
     0
176
     1
  0
VISUALSTYLE
  5
31
102
{ACAD_REACTORS
330
2A
102
}
330
2A
100
AcDbVisualStyle
  2
3D Hidden
 70
     6
177
     2
291
     0
 71
     1
176
     1
 72
     2
176
     1
 73
     2
176
     1
 90
        0
176
     1
 40
-0.6
176
     1
 41
-30.0
176
     1
 62
     5
 63
     7
421
 16777215
176
     1
 74
     2
176
     1
 91
        2
176
     1
 64
     7
176
     1
 65
   257
176
     1
 75
     2
176
     1
175
     1
176
     1
 42
40.0
176
     1
 92
        0
176
     1
 66
   257
176
     1
 43
1.0
176
     1
 76
     1
176
     1
 77
     6
176
     1
 78
     2
176
     1
 67
     7
176
     1
 79
     3
176
     1
170
     0
176
     1
171
     0
176
     1
290
     0
176
     1
 93
        1
176
     1
 44
0.0
176
     1
173
     0
176
     1
  0
VISUALSTYLE
  5
30
102
{ACAD_REACTORS
330
2A
102
}
330
2A
100
AcDbVisualStyle
  2
3dWireframe
 70
     5
177
     2
291
     0
 71
     0
176
     1
 72
     2
176
     1
 73
     0
176
     1
 90
        0
176
     1
 40
-0.6
176
     1
 41
-30.0
176
     1
 62
     5
 63
     7
421
 16777215
176
     1
 74
     1
176
     1
 91
        4
176
     1
 64
     7
176
     1
 65
   257
176
     1
 75
     1
176
     1
175
     1
176
     1
 42
1.0
176
     1
 92
        0
176
     1
 66
   257
176
     1
 43
1.0
176
     1
 76
     1
176
     1
 77
     6
176
     1
 78
     2
176
     1
 67
     7
176
     1
 79
     5
176
     1
170
     0
176
     1
171
     0
176
     1
290
     0
176
     1
 93
        1
176
     1
 44
0.0
176
     1
173
     0
176
     1
  0
VISUALSTYLE
  5
32
102
{ACAD_REACTORS
330
2A
102
}
330
2A
100
AcDbVisualStyle
  2
Basic
 70
     7
177
     2
291
     1
 71
     1
176
     1
 72
     0
176
     1
 73
     1
176
     1
 90
        0
176
     1
 40
-0.6
176
     1
 41
-30.0
176
     1
 62
     5
 63
     7
421
 16777215
176
     1
 74
     0
176
     1
 91
        4
176
     1
 64
     7
176
     1
 65
   257
176
     1
 75
     1
176
     1
175
     1
176
     1
 42
1.0
176
     1
 92
        8
176
     1
 66
     7
176
     1
 43
1.0
176
     1
 76
     1
176
     1
 77
     6
176
     1
 78
     2
176
     1
 67
     7
176
     1
 79
     5
176
     1
170
     0
176
     1
171
     0
176
     1
290
     0
176
     1
 93
        1
176
     1
 44
0.0
176
     1
173
     0
176
     1
  0
VISUALSTYLE
  5
36
102
{ACAD_REACTORS
330
2A
102
}
330
2A
100
AcDbVisualStyle
  2
Brighten
 70
    12
177
     2
291
     1
 71
     2
176
     1
 72
     2
176
     1
 73
     0
176
     1
 90
        0
176
     1
 40
-0.6
176
     1
 41
-30.0
176
     1
 62
     5
 63
     7
421
 16777215
176
     1
 74
     1
176
     1
 91
        4
176
     1
 64
     7
176
     1
 65
   257
176
     1
 75
     1
176
     1
175
     1
176
     1
 42
1.0
176
     1
 92
        8
176
     1
 66
     7
176
     1
 43
1.0
176
     1
 76
     1
176
     1
 77
     6
176
     1
 78
     2
176
     1
 67
     7
176
     1
 79
     5
176
     1
170
     0
176
     1
171
     0
176
     1
290
     0
176
     1
 93
        1
176
     1
 44
50.0
176
     1
173
     0
176
     1
  0
VISUALSTYLE
  5
3A
102
{ACAD_REACTORS
330
2A
102
}
330
2A
100
AcDbVisualStyle
  2
ColorChange
 70
    16
177
     2
291
     1
 71
     2
176
     1
 72
     2
176
     1
 73
     3
176
     1
 90
        0
176
     1
 40
-0.6
176
     1
 41
-30.0
176
     1
 62
     5
 63
     8
421
  8421504
176
     1
 74
     1
176
     1
 91
        4
176
     1
 64
     7
176
     1
 65
   257
176
     1
 75
     1
176
     1
175
     1
176
     1
 42
1.0
176
     1
 92
        8
176
     1
 66
     8
424
  8421504
176
     1
 43
1.0
176
     1
 76
     1
176
     1
 77
     6
176
     1
 78
     2
176
     1
 67
     7
176
     1
 79
     5
176
     1
170
     0
176
     1
171
     0
176
     1
290
     0
176
     1
 93
        1
176
     1
 44
0.0
176
     1
173
     0
176
     1
  0
VISUALSTYLE
  5
34
102
{ACAD_REACTORS
330
2A
102
}
330
2A
100
AcDbVisualStyle
  2
Conceptual
 70
     9
177
     2
291
     0
 71
     3
176
     1
 72
     2
176
     1
 73
     0
176
     1
 90
        0
176
     1
 40
-0.6
176
     1
 41
-30.0
176
     1
 62
     5
 63
     7
421
 16777215
176
     1
 74
     2
176
     1
 91
        2
176
     1
 64
     7
176
     1
 65
   257
176
     1
 75
     1
176
     1
175
     1
176
     1
 42
40.0
176
     1
 92
        8
176
     1
 66
     7
176
     1
 43
1.0
176
     1
 76
     1
176
     1
 77
     6
176
     1
 78
     2
176
     1
 67
     7
176
     1
 79
     3
176
     1
170
     0
176
     1
171
     0
176
     1
290
     0
176
     1
 93
        1
176
     1
 44
0.0
176
     1
173
     0
176
     1
  0
VISUALSTYLE
  5
35
102
{ACAD_REACTORS
330
2A
102
}
330
2A
100
AcDbVisualStyle
  2
Dim
 70
    11
177
     2
291
     1
 71
     2
176
     1
 72
     2
176
     1
 73
     0
176
     1
 90
        0
176
     1
 40
-0.6
176
     1
 41
-30.0
176
     1
 62
     5
 63
     7
421
 16777215
176
     1
 74
     1
176
     1
 91
        4
176
     1
 64
     7
176
     1
 65
   257
176
     1
 75
     1
176
     1
175
     1
176
     1
 42
1.0
176
     1
 92
        8
176
     1
 66
     7
176
     1
 43
1.0
176
     1
 76
     1
176
     1
 77
     6
176
     1
 78
     2
176
     1
 67
     7
176
     1
 79
     5
176
     1
170
     0
176
     1
171
     0
176
     1
290
     0
176
     1
 93
        1
176
     1
 44
-50.0
176
     1
173
     0
176
     1
  0
VISUALSTYLE
  5
39
102
{ACAD_REACTORS
330
2A
102
}
330
2A
100
AcDbVisualStyle
  2
Facepattern
 70
    15
177
     2
291
     1
 71
     2
176
     1
 72
     2
176
     1
 73
     0
176
     1
 90
        0
176
     1
 40
-0.6
176
     1
 41
-30.0
176
     1
 62
     5
 63
     7
421
 16777215
176
     1
 74
     1
176
     1
 91
        4
176
     1
 64
     7
176
     1
 65
   257
176
     1
 75
     1
176
     1
175
     1
176
     1
 42
1.0
176
     1
 92
        8
176
     1
 66
     7
176
     1
 43
1.0
176
     1
 76
     1
176
     1
 77
     6
176
     1
 78
     2
176
     1
 67
     7
176
     1
 79
     5
176
     1
170
     0
176
     1
171
     0
176
     1
290
     0
176
     1
 93
        1
176
     1
 44
0.0
176
     1
173
     0
176
     1
  0
VISUALSTYLE
  5
2B
102
{ACAD_REACTORS
330
2A
102
}
330
2A
100
AcDbVisualStyle
  2
Flat
 70
     0
177
     2
291
     1
 71
     2
176
     1
 72
     1
176
     1
 73
     1
176
     1
 90
        2
176
     1
 40
-0.6
176
     1
 41
30.0
176
     1
 62
     5
 63
     7
421
 16777215
176
     1
 74
     0
176
     1
 91
        4
176
     1
 64
     7
176
     1
 65
   257
176
     1
 75
     1
176
     1
175
     1
176
     1
 42
1.0
176
     1
 92
        8
176
     1
 66
     7
176
     1
 43
1.0
176
     1
 76
     1
176
     1
 77
     6
176
     1
 78
     2
176
     1
 67
     7
176
     1
 79
     5
176
     1
170
     0
176
     1
171
     0
176
     1
290
     0
176
     1
 93
       13
176
     1
 44
0.0
176
     1
173
     0
176
     1
  0
VISUALSTYLE
  5
2C
102
{ACAD_REACTORS
330
2A
102
}
330
2A
100
AcDbVisualStyle
  2
FlatWithEdges
 70
     1
177
     2
291
     1
 71
     2
176
     1
 72
     1
176
     1
 73
     1
176
     1
 90
        2
176
     1
 40
-0.6
176
     1
 41
30.0
176
     1
 62
     5
 63
     7
421
 16777215
176
     1
 74
     1
176
     1
 91
        4
176
     1
 64
     7
176
     1
 65
   257
176
     1
 75
     1
176
     1
175
     1
176
     1
 42
1.0
176
     1
 92
        0
176
     1
 66
   257
176
     1
 43
1.0
176
     1
 76
     1
176
     1
 77
     6
176
     1
 78
     2
176
     1
 67
     7
176
     1
 79
     5
176
     1
170
     0
176
     1
171
     0
176
     1
290
     0
176
     1
 93
       13
176
     1
 44
0.0
176
     1
173
     0
176
     1
  0
VISUALSTYLE
  5
2D
102
{ACAD_REACTORS
330
2A
102
}
330
2A
100
AcDbVisualStyle
  2
Gouraud
 70
     2
177
     2
291
     1
 71
     2
176
     1
 72
     2
176
     1
 73
     1
176
     1
 90
        2
176
     1
 40
-0.6
176
     1
 41
30.0
176
     1
 62
     5
 63
     7
421
 16777215
176
     1
 74
     0
176
     1
 91
        4
176
     1
 64
     7
176
     1
 65
   257
176
     1
 75
     1
176
     1
175
     1
176
     1
 42
1.0
176
     1
 92
        0
176
     1
 66
     7
176
     1
 43
1.0
176
     1
 76
     1
176
     1
 77
     6
176
     1
 78
     2
176
     1
 67
     7
176
     1
 79
     5
176
     1
170
     0
176
     1
171
     0
176
     1
290
     0
176
     1
 93
       13
176
     1
 44
0.0
176
     1
173
     0
176
     1
  0
VISUALSTYLE
  5
2E
102
{ACAD_REACTORS
330
2A
102
}
330
2A
100
AcDbVisualStyle
  2
GouraudWithEdges
 70
     3
177
     2
291
     1
 71
     2
176
     1
 72
     2
176
     1
 73
     1
176
     1
 90
        2
176
     1
 40
-0.6
176
     1
 41
30.0
176
     1
 62
     5
 63
     7
421
 16777215
176
     1
 74
     1
176
     1
 91
        4
176
     1
 64
     7
176
     1
 65
   257
176
     1
 75
     1
176
     1
175
     1
176
     1
 42
1.0
176
     1
 92
        0
176
     1
 66
   257
176
     1
 43
1.0
176
     1
 76
     1
176
     1
 77
     6
176
     1
 78
     2
176
     1
 67
     7
176
     1
 79
     5
176
     1
170
     0
176
     1
171
     0
176
     1
290
     0
176
     1
 93
       13
176
     1
 44
0.0
176
     1
173
     0
176
     1
  0
VISUALSTYLE
  5
38
102
{ACAD_REACTORS
330
2A
102
}
330
2A
100
AcDbVisualStyle
  2
Linepattern
 70
    14
177
     2
291
     1
 71
     2
176
     1
 72
     2
176
     1
 73
     0
176
     1
 90
        0
176
     1
 40
-0.6
176
     1
 41
-30.0
176
     1
 62
     5
 63
     7
421
 16777215
176
     1
 74
     1
176
     1
 91
        4
176
     1
 64
     7
176
     1
 65
   257
176
     1
 75
     7
176
     1
175
     7
176
     1
 42
1.0
176
     1
 92
        8
176
     1
 66
     7
176
     1
 43
1.0
176
     1
 76
     1
176
     1
 77
     6
176
     1
 78
     2
176
     1
 67
     7
176
     1
 79
     5
176
     1
170
     0
176
     1
171
     0
176
     1
290
     0
176
     1
 93
        1
176
     1
 44
0.0
176
     1
173
     0
176
     1
  0
VISUALSTYLE
  5
33
102
{ACAD_REACTORS
330
2A
102
}
330
2A
100
AcDbVisualStyle
  2
Realistic
 70
     8
177
     2
291
     0
 71
     2
176
     1
 72
     2
176
     1
 73
     0
176
     1
 90
        0
176
     1
 40
-0.6
176
     1
 41
-30.0
176
     1
 62
     5
 63
     7
421
 16777215
176
     1
 74
     1
176
     1
 91
        0
176
     1
 64
     7
176
     1
 65
   257
176
     1
 75
     1
176
     1
175
     1
176
     1
 42
1.0
176
     1
 92
        8
176
     1
 66
     8
424
  7895160
176
     1
 43
1.0
176
     1
 76
     1
176
     1
 77
     6
176
     1
 78
     2
176
     1
 67
     7
176
     1
 79
     5
176
     1
170
     0
176
     1
171
     0
176
     1
290
     0
176
     1
 93
       13
176
     1
 44
0.0
176
     1
173
     0
176
     1
  0
VISUALSTYLE
  5
37
102
{ACAD_REACTORS
330
2A
102
}
330
2A
100
AcDbVisualStyle
  2
Thicken
 70
    13
177
     2
291
     1
 71
     2
176
     1
 72
     2
176
     1
 73
     0
176
     1
 90
        0
176
     1
 40
-0.6
176
     1
 41
-30.0
176
     1
 62
     5
 63
     7
421
 16777215
176
     1
 74
     1
176
     1
 91
        4
176
     1
 64
     7
176
     1
 65
   257
176
     1
 75
     1
176
     1
175
     1
176
     1
 42
1.0
176
     1
 92
       12
176
     1
 66
     7
176
     1
 43
1.0
176
     1
 76
     1
176
     1
 77
     6
176
     1
 78
     2
176
     1
 67
     7
176
     1
 79
     5
176
     1
170
     0
176
     1
171
     0
176
     1
290
     0
176
     1
 93
        1
176
     1
 44
0.0
176
     1
173
     0
176
     1
  0
ENDSEC
  0
EOF
