0
SECTION
2
HEADER
9
$INSUNITS
70
4
9
$ACADVER
1
AC1014
9
$HANDSEED
5
FFFF
0
ENDSEC
0
SECTION
2
TABLES
0
TABLE
2
VPORT
5
8
100
AcDbSymbolTable
0
ENDTAB
0
TABLE
2
LTYPE
5
5
100
AcDbSymbolTable
0
LTYPE
5
14
100
AcDbSymbolTableRecord
100
AcDbLinetypeTableRecord
2
BYBLOCK
70
0
0
LTYPE
5
15
100
AcDbSymbolTableRecord
100
AcDbLinetypeTableRecord
2
BYLAYER
70
0
0
ENDTAB
0
TABLE
2
LAYER
5
2
100
AcDbSymbolTable
70
2
0
LAYER
5
50
100
AcDbSymbolTableRecord
100
AcDbLayerTableRecord
2
0
70
0
6
CONTINUOUS
0
ENDTAB
0
TABLE
2
STYLE
5
3
100
AcDbSymbolTable
70
1
0
STYLE
5
11
100
AcDbSymbolTableRecord
100
AcDbTextStyleTableRecord
2
STANDARD
70
0
0
ENDTAB
0
TABLE
2
VIEW
5
6
100
AcDbSymbolTable
70
0
0
ENDTAB
0
TABLE
2
UCS
5
7
100
AcDbSymbolTable
70
0
0
ENDTAB
0
TABLE
2
APPID
5
9
100
AcDbSymbolTable
70
2
0
APPID
5
12
100
AcDbSymbolTableRecord
100
AcDbRegAppTableRecord
2
ACAD
70
0
0
ENDTAB
0
TABLE
2
DIMSTYLE
5
A
100
AcDbSymbolTable
70
1
0
ENDTAB
0
TABLE
2
BLOCK_RECORD
5
1
100
AcDbSymbolTable
70
1
0
BLOCK_RECORD
5
1F
100
AcDbSymbolTableRecord
100
AcDbBlockTableRecord
2
*MODEL_SPACE
0
BLOCK_RECORD
5
1B
100
AcDbSymbolTableRecord
100
AcDbBlockTableRecord
2
*PAPER_SPACE
0
ENDTAB
0
ENDSEC
0
SECTION
2
BLOCKS
0
BLOCK
5
20
100
AcDbEntity
100
AcDbBlockBegin
2
*MODEL_SPACE
0
ENDBLK
5
21
100
AcDbEntity
100
AcDbBlockEnd
0
BLOCK
5
1C
100
AcDbEntity
100
AcDbBlockBegin
2
*PAPER_SPACE
0
ENDBLK
5
1D
100
AcDbEntity
100
AcDbBlockEnd
0
ENDSEC
0
SECTION
2
ENTITIES
0
SPLINE
5
100
100
AcDbEntity
8
0
100
AcDbSpline
70
0
71
3
72
16
73
12
74
0
42
0.000000001
43
0.0000000001
44
0.0000000001
40
0
40
0
40
0
40
0
40
0.1282119425210172
40
0.1282119425210172
40
0.19120101342911378
40
0.19120101342911378
40
0.23951356092657941
40
0.23951356092657941
40
0.28812261636754416
40
0.28812261636754416
40
0.43370168622910743
40
0.43370168622910743
40
0.43370168622910743
40
0.43370168622910743
10
-2.7040017141963846
20
-92.350000000000009
30
0
10
-2.2766285724596607
20
-92.350000000000009
30
0
10
-2.038214741322494
20
-92.337316139791454
30
0
10
-1.8121767148289771
20
-92.291395150029857
30
0
10
-1.7556746697936698
20
-92.271318911824721
30
0
10
-1.6769950235716853
20
-92.223803906302763
30
0
10
-1.6485796100044321
20
-92.198343863528549
30
0
10
-1.6012881721692556
20
-92.133626379144019
30
0
10
-1.5823535327255747
20
-92.094164107807316
30
0
10
-1.5214443478617325
20
-91.89861575454583
30
0
10
-1.5040017141963846
20
-91.651172727930373
30
0
10
-1.5040017141963846
20
-91.15000000000002
30
0
0
LINE
5
101
100
AcDbEntity
8
0
100
AcDbLine
10
-1.5040017141963844
20
-91.150000000000006
30
0
11
-1.5040017141963846
21
-90.549999999999997
31
0
0
SPLINE
5
102
100
AcDbEntity
8
0
100
AcDbSpline
70
4
71
2
72
6
73
3
74
0
42
0.000000001
43
0.0000000001
44
0.0000000001
40
0
40
0
40
0
40
0.20715211801958328
40
0.20715211801958328
40
0.20715211801958328
41
1
41
2.3333333333332846
41
1
10
-1.5040017141963846
20
-90.549999999999997
30
0
10
-1.5040017141963846
20
-89.350000000000009
30
0
10
-0.30400171419638466
20
-89.350000000000009
30
0
0
LINE
5
103
100
AcDbEntity
8
0
100
AcDbLine
10
-0.30400171419638483
20
-89.349999999999966
30
0
11
0.29599828580361587
21
-89.350000000000009
31
0
0
SPLINE
5
104
100
AcDbEntity
8
0
100
AcDbSpline
70
4
71
2
72
6
73
3
74
0
42
0.000000001
43
0.0000000001
44
0.0000000001
40
-0.20715211801958328
40
-0.20715211801958328
40
-0.20715211801958328
40
-0
40
-0
40
-0
41
1
41
2.3333333333332846
41
1
10
0.29599828580361587
20
-89.350000000000009
30
0
10
1.4959982858036158
20
-89.350000000000009
30
0
10
1.4959982858036158
20
-90.549999999999997
30
0
0
LINE
5
105
100
AcDbEntity
8
0
100
AcDbLine
10
1.495998285803616
20
-90.549999999999997
30
-5.5511151231257827e-16
11
1.4959982858036165
21
-91.15000000000002
31
0
0
SPLINE
5
106
100
AcDbEntity
8
0
100
AcDbSpline
70
4
71
2
72
6
73
3
74
0
42
0.000000001
43
0.0000000001
44
0.0000000001
40
0
40
0
40
0
40
0.21213203435596278
40
0.21213203435596278
40
0.21213203435596278
41
1
41
2.9999999999999414
41
1
10
1.4959982858036165
20
-91.15000000000002
30
0
10
1.4959982858036165
20
-92.350000000000009
30
0
10
2.6959982858036162
20
-92.350000000000009
30
0
0
LINE
5
107
100
AcDbEntity
8
0
100
AcDbLine
10
2.6959982858036158
20
-92.350000000000065
30
-5.5511151231257827e-16
11
3.2959982858036159
21
-92.350000000000009
31
0
0
SPLINE
5
108
100
AcDbEntity
8
0
100
AcDbSpline
70
4
71
2
72
6
73
3
74
0
42
0.000000001
43
0.0000000001
44
0.0000000001
40
-0.2071521180195833
40
-0.2071521180195833
40
-0.2071521180195833
40
-0
40
-0
40
-0
41
1
41
2.3333333333332811
41
1
10
3.2959982858036159
20
-92.350000000000009
30
0
10
4.4959982858036156
20
-92.350000000000009
30
0
10
4.4959982858036156
20
-93.550000000000011
30
0
0
LINE
5
109
100
AcDbEntity
8
0
100
AcDbLine
10
4.4959982858036138
20
-93.549999999999969
30
-2.7755575615628914e-15
11
4.4959982858036156
21
-94.150000000000034
31
0
0
SPLINE
5
110
100
AcDbEntity
8
0
100
AcDbSpline
70
4
71
2
72
6
73
3
74
0
42
0.000000001
43
0.0000000001
44
0.0000000001
40
-0.2071521180195833
40
-0.2071521180195833
40
-0.2071521180195833
40
-0
40
-0
40
-0
41
1
41
2.3333333333332811
41
1
10
4.4959982858036156
20
-94.150000000000034
30
0
10
4.4959982858036156
20
-95.350000000000023
30
0
10
3.2959982858036159
20
-95.350000000000023
30
0
0
LINE
5
111
100
AcDbEntity
8
0
100
AcDbLine
10
3.2959982858036163
20
-95.349999999999966
30
-2.7755575615628914e-15
11
2.6959982858036158
21
-95.350000000000023
31
0
0
SPLINE
5
112
100
AcDbEntity
8
0
100
AcDbSpline
70
4
71
2
72
6
73
3
74
0
42
0.000000001
43
0.0000000001
44
0.0000000001
40
-0.21213203435596278
40
-0.21213203435596278
40
-0.21213203435596278
40
-0
40
-0
40
-0
41
1
41
2.9999999999999414
41
1
10
2.6959982858036158
20
-95.350000000000023
30
0
10
1.4959982858036158
20
-95.350000000000023
30
0
10
1.4959982858036158
20
-96.550000000000011
30
0
0
LINE
5
113
100
AcDbEntity
8
0
100
AcDbLine
10
1.4959982858036158
20
-96.549999999999997
30
5.5511151231257827e-16
11
1.4959982858036158
21
-97.15000000000002
31
0
0
SPLINE
5
114
100
AcDbEntity
8
0
100
AcDbSpline
70
4
71
2
72
6
73
3
74
0
42
0.000000001
43
0.0000000001
44
0.0000000001
40
0
40
0
40
0
40
0.20715211801958328
40
0.20715211801958328
40
0.20715211801958328
41
1
41
2.3333333333332846
41
1
10
1.4959982858036158
20
-97.15000000000002
30
0
10
1.4959982858036158
20
-98.350000000000009
30
0
10
0.29599828580361587
20
-98.350000000000009
30
0
0
LINE
5
115
100
AcDbEntity
8
0
100
AcDbLine
10
0.29599828580361603
20
-98.350000000000023
30
0
11
-0.30400171419638466
21
-98.350000000000009
31
0
0
SPLINE
5
116
100
AcDbEntity
8
0
100
AcDbSpline
70
4
71
2
72
6
73
3
74
0
42
0.000000001
43
0.0000000001
44
0.0000000001
40
-0.20715211801958328
40
-0.20715211801958328
40
-0.20715211801958328
40
-0
40
-0
40
-0
41
1
41
2.3333333333332846
41
1
10
-0.30400171419638466
20
-98.350000000000009
30
0
10
-1.5040017141963846
20
-98.350000000000009
30
0
10
-1.5040017141963846
20
-97.15000000000002
30
0
0
LINE
5
117
100
AcDbEntity
8
0
100
AcDbLine
10
-1.5040017141963855
20
-97.15000000000002
30
-5.5511151231257827e-16
11
-1.5040017141963853
21
-96.550000000000011
31
0
0
SPLINE
5
118
100
AcDbEntity
8
0
100
AcDbSpline
70
4
71
2
72
6
73
3
74
0
42
0.000000001
43
0.0000000001
44
0.0000000001
40
-0.21213203435596284
40
-0.21213203435596284
40
-0.21213203435596284
40
-0
40
-0
40
-0
41
1
41
2.9999999999999414
41
1
10
-1.5040017141963853
20
-96.550000000000011
30
0
10
-1.5040017141963853
20
-95.350000000000023
30
0
10
-2.704001714196385
20
-95.350000000000023
30
0
0
LINE
5
119
100
AcDbEntity
8
0
100
AcDbLine
10
-2.7040017141963855
20
-95.349999999999952
30
-5.5511151231257827e-16
11
-3.3040017141963847
21
-95.350000000000023
31
0
0
SPLINE
5
120
100
AcDbEntity
8
0
100
AcDbSpline
70
4
71
2
72
6
73
3
74
0
42
0.000000001
43
0.0000000001
44
0.0000000001
40
0
40
0
40
0
40
0.20715211801958328
40
0.20715211801958328
40
0.20715211801958328
41
1
41
2.3333333333332811
41
1
10
-3.3040017141963847
20
-95.350000000000023
30
0
10
-4.5040017141963844
20
-95.350000000000023
30
0
10
-4.5040017141963844
20
-94.150000000000034
30
0
0
LINE
5
121
100
AcDbEntity
8
0
100
AcDbLine
10
-4.5040017141963835
20
-94.150000000000048
30
-2.2204460492503131e-15
11
-4.5040017141963844
21
-93.550000000000011
31
0
0
SPLINE
5
122
100
AcDbEntity
8
0
100
AcDbSpline
70
4
71
2
72
6
73
3
74
0
42
0.000000001
43
0.0000000001
44
0.0000000001
40
0
40
0
40
0
40
0.20715211801958328
40
0.20715211801958328
40
0.20715211801958328
41
1
41
2.3333333333332811
41
1
10
-4.5040017141963844
20
-93.550000000000011
30
0
10
-4.5040017141963844
20
-92.350000000000009
30
0
10
-3.3040017141963847
20
-92.350000000000009
30
0
0
LINE
5
123
100
AcDbEntity
8
0
100
AcDbLine
10
-3.3040017141963847
20
-92.34999999999998
30
-2.2204460492503131e-15
11
-2.7040017141963846
21
-92.350000000000009
31
0
0
ELLIPSE
5
124
100
AcDbEntity
8
0
100
AcDbEllipse
10
-1.5325502841856626
20
-66.687862705997958
30
0
11
-3.7125000000122932
21
3.7125000000122927
31
0.0
40
0.70272836892510804
41
2.5290379152512688
42
3.7541473919283397
0
ELLIPSE
5
125
100
AcDbEntity
8
0
100
AcDbEllipse
10
1.5424497157876293
20
-66.687862706048463
30
0
11
3.7124999999620818
21
3.7124999999620822
31
0.0
40
0.70272836892943924
41
2.5290379152483604
42
3.7541473919328778
0
LINE
5
126
100
AcDbEntity
8
0
100
AcDbLine
10
-2.9950502841727134
20
-68.225362706017137
30
0
11
-2.9950502841745457
21
-49.225362706010422
31
0
0
ELLIPSE
5
127
100
AcDbEntity
8
0
100
AcDbEllipse
10
1.5424497158252164
20
-50.762862706010182
30
0
11
3.7124999999997614
21
-3.7124999999997623
31
0.0
40
0.70272836892633195
41
2.5290379152504343
42
3.7541473919291506
0
ELLIPSE
5
128
100
AcDbEntity
8
0
100
AcDbEllipse
10
-1.5325502841743828
20
-50.762862706010253
30
0
11
3.7124999999998365
21
3.7124999999998369
31
0.0
40
0.70272836892632418
41
5.6706305688402319
42
6.8957400455189379
0
LINE
5
129
100
AcDbEntity
8
0
100
AcDbLine
10
3.0049497158254557
20
-49.225362706010422
30
0
11
3.0049497158268048
21
-68.225362706008994
31
0
0
SPLINE
5
130
100
AcDbEntity
8
0
100
AcDbSpline
70
4
71
2
72
6
73
3
74
0
42
0.000000001
43
0.0000000001
44
0.0000000001
40
-0.97364405164585155
40
-0.97364405164585155
40
-0.97364405164585155
40
-0
40
-0
40
-0
41
1
41
1
41
1
10
-6.2450502841745461
20
-64.070364039671446
30
0
10
-6.2450502841745461
20
-70.228364039671447
30
0
10
-12.402781617021589
20
-70.228364039671447
30
0
0
ARC
5
131
100
AcDbEntity
8
0
100
AcDbCircle
10
-12.402841469916446
20
-82.826122439308989
30
0
40
12.597758399779725
210
0
220
-0
230
1
100
AcDbArc
50
89.999727783454929
51
240.96527356572372
0
ELLIPSE
5
132
100
AcDbEntity
8
0
100
AcDbEllipse
10
-10.387775688056436
20
-93.937760850567088
30
0
11
-13.024721736845491
21
5.1448406125822643
31
0.0
40
0.24618228552390869
41
0.99744874648510118
42
2.5842620150544313
0
ELLIPSE
5
133
100
AcDbEntity
8
0
100
AcDbEllipse
10
10.371811628782442
20
-93.943691209777725
30
0
11
-13.022857241741532
21
-5.1369846373650034
31
0.0
40
0.24632415135260705
41
0.55821129763468869
42
2.2403486441506923
0
ARC
5
134
100
AcDbEntity
8
0
100
AcDbCircle
10
12.402781617021645
20
-82.826122439308989
30
0
40
12.597758399637504
210
0
220
0
230
1
100
AcDbArc
50
-56.005128645188698
51
90
0
SPLINE
5
135
100
AcDbEntity
8
0
100
AcDbSpline
70
4
71
2
72
6
73
3
74
0
42
0.000000001
43
0.0000000001
44
0.0000000001
40
0
40
0
40
0
40
0.97204139439128667
40
0.97204139439128667
40
0.97204139439128667
41
1
41
1
41
1
10
12.402781617021645
20
-70.22836403967149
30
0
10
6.2548587545600736
20
-70.227341100977512
30
0
10
6.2549497158254574
20
-64.08036403967148
30
0
0
LINE
5
136
100
AcDbEntity
8
0
100
AcDbLine
10
6.2549497158254574
20
-64.080364039671494
30
0
11
6.2549497158254574
21
-58.736360518562158
31
0
0
SPLINE
5
137
100
AcDbEntity
8
0
100
AcDbSpline
70
4
71
2
72
6
73
3
74
0
42
0.000000001
43
0.0000000001
44
0.0000000001
40
0
40
0
40
0
40
0.98306876926642384
40
0.98306876926642384
40
0.98306876926642384
41
1
41
1.8571428571428619
41
1
10
6.2549497158254574
20
-58.736360518562158
30
0
10
6.2549497158254415
20
-54.262527886745893
30
0
10
12.717395159782278
20
-52.725362708070172
30
0
0
ARC
5
138
100
AcDbEntity
8
0
100
AcDbCircle
10
32.845443941906481
20
-151.69940805443309
30
0
40
100.9999999999974
210
0
220
0
230
1
100
AcDbArc
50
99.133361919751721
51
101.49530360438574
0
SPLINE
5
139
100
AcDbEntity
8
0
100
AcDbSpline
70
4
71
2
72
6
73
3
74
0
42
0.000000001
43
0.0000000001
44
0.0000000001
40
0
40
0
40
0
40
0.98030559746849077
40
0.98030559746849077
40
0.98030559746849077
41
1
41
2.2598983368786869
41
1.1387809448528423
10
16.813412242269518
20
-51.97993172417295
30
0
10
23.625293869219032
20
-51.126988631428077
30
0
10
23.938149543098145
20
-47.485394322441948
30
0
0
SPLINE
5
140
100
AcDbEntity
8
0
100
AcDbSpline
70
4
71
2
72
6
73
3
74
0
42
0.000000001
43
0.0000000001
44
0.0000000001
40
-0.16303497500404729
40
-0.16303497500404729
40
-0.16303497500404729
40
-0
40
-0
40
-0
41
1
41
1.8571428571428239
41
1
10
23.938149543098156
20
-47.485394322441948
30
0
10
24.001168150255499
20
-46.485394322442716
30
0
10
23.001168150255499
20
-46.607475941303989
30
0
0
LINE
5
141
100
AcDbEntity
8
0
100
AcDbLine
10
23.001168150255499
20
-46.607475941303996
30
0
11
9.0627267601315431
21
-48.309103430613185
31
0
0
SPLINE
5
142
100
AcDbEntity
8
0
100
AcDbSpline
70
4
71
2
72
6
73
3
74
0
42
0.000000001
43
0.0000000001
44
0.0000000001
40
0
40
0
40
0
40
1.0185878284092642
40
1.0185878284092642
40
1.0185878284092642
41
1
41
1.4999999999999978
41
1
10
9.0627267601315431
20
-48.309103430613185
30
0
10
4.3470879031391165
20
-48.884796256239909
30
-5.5511151231257827e-16
10
3.6722634891770967
20
-41.295807671339581
30
0
0
LINE
5
143
100
AcDbEntity
8
0
100
AcDbLine
10
3.6722634891770971
20
-41.295807671339595
30
0
11
2.4056982104364839
21
-27.052177412084248
31
0
0
LINE
5
144
100
AcDbEntity
8
0
100
AcDbLine
10
2.4056982104364839
20
-27.052177412084248
30
0
11
2.4056982104364839
21
-13.947025627347927
31
0
0
SPLINE
5
145
100
AcDbEntity
8
0
100
AcDbSpline
70
4
71
2
72
6
73
3
74
0
42
0.000000001
43
0.0000000001
44
0.0000000001
40
0
40
0
40
0
40
1.2246546164164112
40
1.2246546164164112
40
1.2246546164164112
41
1
41
3.0000000000000018
41
1
10
2.4056982104364839
20
-13.947025627347927
30
0
10
2.4056982104364839
20
-6.4407506926713198
30
0
10
9.0032238039289574
20
-7.6234513538955273
30
0
0
LINE
5
146
100
AcDbEntity
8
0
100
AcDbLine
10
9.0032238039289538
20
-7.623451353895522
30
-1.6653345369377348e-15
11
23.011010451559571
21
-10.911341360674527
31
0
0
SPLINE
5
147
100
AcDbEntity
8
0
100
AcDbSpline
70
4
71
2
72
6
73
3
74
0
42
0.000000001
43
0.0000000001
44
0.0000000001
40
0
40
0
40
0
40
0.16043416584609088
40
0.16043416584609088
40
0.16043416584609088
41
1
41
1.8571428571428492
41
1
10
23.011010451559578
20
-10.911341360674527
30
-1.1102230246251565e-15
10
24.011010451559574
20
-11.146060098865416
30
0
10
23.936720705141973
20
-10.146060098865416
30
0
0
SPLINE
5
148
100
AcDbEntity
8
0
100
AcDbSpline
70
4
71
2
72
6
73
3
74
0
42
0.000000001
43
0.0000000001
44
0.0000000001
40
-1.0453616381267494
40
-1.0453616381267494
40
-1.0453616381267494
40
-0
40
-0
40
-0
41
1.1614118209421143
41
2.9157446036193146
41
1
10
23.936720705141816
20
-10.146060098865327
30
0
10
23.607231340417741
20
-6.3734465753800418
30
0
10
16.734294154217306
20
-4.9125586785076161
30
0
0
LINE
5
149
100
AcDbEntity
8
0
100
AcDbLine
10
16.734294154217309
20
-4.9125586785076152
30
-5.5511151231257827e-16
11
9.0056364206999113
21
-3.269781764347659
31
0
0
SPLINE
5
150
100
AcDbEntity
8
0
100
AcDbSpline
70
4
71
2
72
6
73
3
74
0
42
0.000000001
43
0.0000000001
44
0.0000000001
40
-1.8238765999409745
40
-1.8238765999409745
40
-1.8238765999409745
40
-0
40
-0
40
-0
41
1
41
3
41
1
10
9.0056364206999113
20
-3.2697817643476554
30
0
10
-2.9926447462358396e-05
20
-1.3555682900505794
30
5.5511151231257827e-16
10
-9.005696273594781
20
-3.2697817643476554
30
0
0
LINE
5
151
100
AcDbEntity
8
0
100
AcDbLine
10
-9.0056962735947863
20
-3.2697817643476572
30
2.7755575615628914e-15
11
-16.729548174672338
21
-4.9115371672891861
31
0
0
SPLINE
5
152
100
AcDbEntity
8
0
100
AcDbSpline
70
4
71
2
72
6
73
3
74
0
42
0.000000001
43
0.0000000001
44
0.0000000001
40
-0.96972374656341787
40
-0.96972374656341787
40
-0.96972374656341787
40
-0.012827587080160099
40
-0.012827587080160099
40
-0.012827587080160099
41
1
41
2.062677448106812
41
1.0281143728861359
10
-16.729548174672338
20
-4.911537167289187
30
0
10
-22.540759847377444
20
-6.1467483395760816
30
0
10
-22.818566980220517
20
-10.758679839496894
30
5.5511151231257827e-16
0
SPLINE
5
153
100
AcDbEntity
8
0
100
AcDbSpline
70
4
71
2
72
6
73
3
74
0
42
0.000000001
43
0.0000000001
44
0.0000000001
40
-4.4105568567907865
40
-4.4105568567907865
40
-4.4105568567907865
40
-0.1102707789511542
40
-0.1102707789511542
40
-0.1102707789511542
41
1.2037320880602718
41
5.453498994637874
41
1.2225614499338304
10
-22.818566980220595
20
-10.758679839497562
30
5.5511151231257827e-16
10
-23.737678236837674
20
-28.458731661835429
30
0
10
-22.825051607328763
20
-46.170452024520898
30
-5.5511151231257827e-16
0
SPLINE
5
154
100
AcDbEntity
8
0
100
AcDbSpline
70
4
71
2
72
6
73
3
74
0
42
0.000000001
43
0.0000000001
44
0.0000000001
40
-0.9389415398833052
40
-0.9389415398833052
40
-0.9389415398833052
40
-0.070324860607174355
40
-0.070324860607174355
40
-0.070324860607174355
41
1.0140118442271351
41
1.45702580661354
41
1.0683820519990921
10
-22.825051607329087
20
-46.170452024520941
30
0
10
-22.524960776159443
20
-50.966593741510962
30
0
10
-17.943909131581727
20
-51.803266008065236
30
0
0
ARC
5
155
100
AcDbEntity
8
0
100
AcDbCircle
10
-32.835544510255573
20
-151.69940805443309
30
0
40
100.99999999999744
210
0
220
-0
230
1
100
AcDbArc
50
78.50469639561426
51
81.521288110699643
0
SPLINE
5
156
100
AcDbEntity
8
0
100
AcDbSpline
70
4
71
2
72
6
73
3
74
0
42
0.000000001
43
0.0000000001
44
0.0000000001
40
-0.98287253762493743
40
-0.98287253762493743
40
-0.98287253762493743
40
-0
40
-0
40
-0
41
1
41
1.8571428571428654
41
1
10
-12.707495728131361
20
-52.725362708070129
30
0
10
-6.245050284174547
20
-54.262527886745893
30
0
10
-6.245050284174547
20
-58.734068353832846
30
0
0
LINE
5
157
100
AcDbEntity
8
0
100
AcDbLine
10
-6.245050284174547
20
-58.734068353832853
30
-5.5511151231257827e-16
11
-6.2450502841745461
21
-64.070364039671446
31
0
0
SPLINE
5
158
100
AcDbEntity
8
0
100
AcDbSpline
70
4
71
2
72
6
73
3
74
0
42
0.000000001
43
0.0000000001
44
0.0000000001
40
0.089160020119841379
40
0.089160020119841379
40
0.089160020119841379
40
3.7201186132648543
40
3.7201186132648543
40
3.7201186132648543
41
1.2130475251838513
41
5.4473086317955612
41
1.2256497628769434
10
-18.960352136982404
20
-43.297917543242768
30
0
10
-19.983781974017724
20
-28.101374262172097
30
-5.5511151231257827e-16
10
-18.977952712506848
20
-13.566883469528319
30
0
0
SPLINE
5
159
100
AcDbEntity
8
0
100
AcDbSpline
70
4
71
2
72
6
73
3
74
0
42
0.000000001
43
0.0000000001
44
0.0000000001
40
-0.86514790148040621
40
-0.86514790148040621
40
-0.86514790148040621
40
-0
40
-0
40
-0
41
1.0434290826126267
41
2.3112531408520081
41
1
10
-18.9779527125066
20
-13.566883469521487
30
5.5511151231257827e-16
10
-18.648152289522276
20
-9.3530041703520457
30
0
10
-13.529697424138714
20
-8.4351682105834556
30
0
0
LINE
5
160
100
AcDbEntity
8
0
100
AcDbLine
10
-13.529697424138716
20
-8.435168210583452
30
5.5511151231257827e-16
11
-9.005696273594781
21
-7.6239287082921336
31
0
0
SPLINE
5
161
100
AcDbEntity
8
0
100
AcDbSpline
70
4
71
2
72
6
73
3
74
0
42
0.000000001
43
0.0000000001
44
0.0000000001
40
-1.2248882380751023
40
-1.2248882380751023
40
-1.2248882380751023
40
-0
40
-0
40
-0
41
1
41
3
41
1
10
-9.005696273594781
20
-7.6239287082921319
30
0
10
-2.4057580633312838
20
-6.4404344634050936
30
5.5511151231257827e-16
10
-2.4057580633312843
20
-13.947025627347927
30
0
0
LINE
5
162
100
AcDbEntity
8
0
100
AcDbLine
10
-2.4057580633312852
20
-13.947025627347927
30
0
11
-2.4057580633312843
21
-27.052177412084248
31
0
0
LINE
5
163
100
AcDbEntity
8
0
100
AcDbLine
10
-2.4057580633312843
20
-27.052177412084248
30
0
11
-3.672323342071897
21
-41.295807671339588
31
0
0
SPLINE
5
164
100
AcDbEntity
8
0
100
AcDbSpline
70
4
71
2
72
6
73
3
74
0
42
0.000000001
43
0.0000000001
44
0.0000000001
40
-1.0282925368783995
40
-1.0282925368783995
40
-1.0282925368783995
40
-0
40
-0
40
-0
41
1
41
1.4999999999999978
41
1
10
-3.672323342071897
20
-41.295807671339588
30
0
10
-4.3471477560339125
20
-48.884796256239909
30
-5.5511151231257827e-16
10
-9.1346455927498411
20
-48.402596003037544
30
0
0
LINE
5
165
100
AcDbEntity
8
0
100
AcDbLine
10
-9.1346455927498429
20
-48.402596003037544
30
0
11
-14.180253166668015
21
-47.894398489377963
31
0
0
SPLINE
5
166
100
AcDbEntity
8
0
100
AcDbSpline
70
4
71
2
72
6
73
3
74
0
42
0.000000001
43
0.0000000001
44
0.0000000001
40
0
40
0
40
0
40
0.74842924627252161
40
0.74842924627252161
40
0.74842924627252161
41
1
41
1.4918678515355683
41
1.0159997695742637
10
-14.180253192651094
20
-47.894398747349371
30
0
10
-18.630796754744015
20
-47.446136772989618
30
0
10
-18.960352136982142
20
-43.297917543243152
30
-1.1102230246251565e-15
0
CIRCLE
5
167
100
AcDbEntity
8
0
100
AcDbCircle
10
12.402781617021645
20
-82.826122439308989
30
0
40
10.750000000000007
210
0
220
0
230
1
0
CIRCLE
5
168
100
AcDbEntity
8
0
100
AcDbCircle
10
-12.402841469916446
20
-82.826122439308989
30
0
40
10.750000000000007
210
0
220
0
230
1
0
ENDSEC
0
SECTION
2
OBJECTS
0
DICTIONARY
5
C
100
AcDbDictionary
3
ACAD_GROUP
350
D
3
ACAD_MLINESTYLE
350
17
0
DICTIONARY
5
D
100
AcDbDictionary
0
DICTIONARY
5
1A
330
C
100
AcDbDictionary
0
DICTIONARY
5
17
100
AcDbDictionary
0
ENDSEC
0
EOF
